<svg width="1920" height="1080" viewBox="0 0 1920 1080" fill="none" xmlns="http://www.w3.org/2000/svg">
<g clip-path="url(#clip0_6373_154174)">
<rect width="1920" height="1080" fill="white"/>
<path d="M326.817 221L-53.4638 -95H2139.57L1594.87 221H326.817Z" fill="#98BBCE" stroke="black" stroke-width="4"/>
<path d="M325.751 857L-45.4055 1130H1973.79L1593.76 857H325.751Z" fill="#CBCBCB" stroke="black" stroke-width="4"/>
<path d="M1920 32L1593 220V858L1920 1090.5V32Z" fill="#BF4A39" stroke="black" stroke-width="4"/>
<path d="M0 -51L327 220L326 856.5L0 1096V-51Z" fill="#BF4A39" stroke="black" stroke-width="4"/>
<rect x="326" y="220" width="1267" height="637" fill="#BF4A39" stroke="black" stroke-width="4"/>
<path d="M34 703L64 704.5V740L34 745.5V703Z" fill="#98BBCE" stroke="black" stroke-width="4"/>
<line x1="50" y1="703" x2="50" y2="742" stroke="black" stroke-width="4"/>
<path d="M1743 293.537L1822.5 260V721.374L1743 680.957V293.537Z" fill="#AADAF4" stroke="black" stroke-width="4"/>
<path d="M1692 290L1743 294.972V682.757L1692 684V290Z" fill="#F8C66D" stroke="black" stroke-width="4" stroke-linejoin="bevel"/>
<path d="M1691.5 290L1741.5 294L1822.5 259.5L1822.5 217.133L1691.5 290Z" fill="#F8C66D" stroke="black" stroke-width="4" stroke-linejoin="bevel"/>
<path d="M1693 684L1743 682L1822.5 721L1822.5 759.5L1693 684Z" fill="#F8C66D" stroke="black" stroke-width="4" stroke-linejoin="bevel"/>
<path d="M93.7275 196L244.273 297.282V915.5L93.7275 1024V196Z" fill="#98BBCE" stroke="black" stroke-width="4"/>
<path d="M105 219.5L232.5 305V923.5L105 1016V219.5Z" fill="#98BBCE" stroke="black" stroke-width="4"/>
<line x1="969" y1="83" x2="969" y2="317" stroke="black" stroke-width="4"/>
<path d="M1103 387H1010.13L968.6 316C1058.6 318.557 1102.75 364.399 1103 387Z" fill="#E0E0E0" stroke="black" stroke-width="4" stroke-linejoin="bevel"/>
<path d="M830 387H922.872L964.4 316C874.401 318.557 830.253 364.399 830 387Z" fill="#E0E0E0" stroke="black" stroke-width="4" stroke-linejoin="bevel"/>
<path d="M1072.2 387H1005.7L967.2 316C1050.64 318.557 1071.96 364.399 1072.2 387Z" fill="#E0E0E0" stroke="black" stroke-width="4" stroke-linejoin="bevel"/>
<path d="M862.2 387H928.7L967.2 316C883.763 318.557 862.435 364.399 862.2 387Z" fill="#E0E0E0" stroke="black" stroke-width="4" stroke-linejoin="bevel"/>
<path d="M1024.6 387.001H915.4C915.4 352.444 934.985 322.093 966.439 316.607C1004.42 320.95 1019.65 365.974 1024.6 387.001Z" fill="#E0E0E0" stroke="black" stroke-width="4"/>
<path d="M1353 680.5L1371.5 662V798L1353 779.5V680.5Z" fill="#98BBCE" stroke="black" stroke-width="4" stroke-linejoin="bevel"/>
<path d="M1390.5 680.5L1372 662V798L1390.5 779.5V680.5Z" fill="#98BBCE" stroke="black" stroke-width="4" stroke-linejoin="bevel"/>
<path d="M1391.5 680.5L1410 662V798L1391.5 779.5V680.5Z" fill="#98BBCE" stroke="black" stroke-width="4" stroke-linejoin="bevel"/>
<path d="M1429 680.5L1410.5 662V798L1429 779.5V680.5Z" fill="#98BBCE" stroke="black" stroke-width="4" stroke-linejoin="bevel"/>
<path d="M1430 680.5L1448.5 662V798L1430 779.5V680.5Z" fill="#98BBCE" stroke="black" stroke-width="4" stroke-linejoin="bevel"/>
<path d="M1467.5 680.5L1449 662V798L1467.5 779.5V680.5Z" fill="#98BBCE" stroke="black" stroke-width="4" stroke-linejoin="bevel"/>
<path d="M1506 681.664V170H1491.5V678.664C1491.5 680.321 1490.16 681.664 1488.5 681.664H1468V698H1493C1500.18 698 1506 692.18 1506 685V681.664Z" fill="#98BBCE" stroke="black" stroke-width="4"/>
<rect width="1920" height="1080" fill="black" fill-opacity="0.2"/>
</g>
<defs>
<clipPath id="clip0_6373_154174">
<rect width="1920" height="1080" fill="white"/>
</clipPath>
</defs>
</svg>
