<svg width="1100" height="618" fill="none" xmlns="http://www.w3.org/2000/svg">
<g clip-path="url(#clip0_6563_155567)">
<rect width="1100" height="618" fill="white"/>
<path d="M187.333 126.64L-30.6346 -54.4379H1226.36L914.15 126.64H187.333Z" fill="#98BBCE" stroke="black" stroke-width="2.29213"/>
<path d="M186.726 490.832L-26.0166 647.27H1131.36L913.536 490.832H186.726Z" fill="#CBCBCB" stroke="black" stroke-width="2.29213"/>
<path d="M1100.22 18.3379L912.841 126.068V491.663L1100.22 624.893V18.3379Z" fill="#BF4A39" stroke="black" stroke-width="2.29213"/>
<path d="M0 -29.2227L187.382 126.069L186.809 490.804L0 628.046V-29.2227Z" fill="#BF4A39" stroke="black" stroke-width="2.29213"/>
<rect x="186.809" y="126.068" width="726.032" height="365.022" fill="#BF4A39" stroke="black" stroke-width="2.29213"/>
<path d="M998.796 168.206L1044.35 148.988V413.37L998.796 390.21V168.206Z" fill="#AADAF4" stroke="black" stroke-width="2.29213"/>
<path d="M969.571 166.18L998.796 169.029V391.242L969.571 391.954V166.18Z" fill="#F8C66D" stroke="black" stroke-width="2.29213" stroke-linejoin="bevel"/>
<path d="M969.284 166.179L997.936 168.471L1044.35 148.702L1044.35 124.424L969.284 166.179Z" fill="#F8C66D" stroke="black" stroke-width="2.29213" stroke-linejoin="bevel"/>
<path d="M970.145 391.953L998.796 390.807L1044.35 413.155L1044.35 435.217L970.145 391.953Z" fill="#F8C66D" stroke="black" stroke-width="2.29213" stroke-linejoin="bevel"/>
<path fill-rule="evenodd" clip-rule="evenodd" d="M437.924 408.233C437.924 408.225 437.924 408.216 437.924 408.208C437.924 404.565 436.477 401.071 433.901 398.495L414.211 378.806C408.073 372.667 404.625 364.342 404.625 355.661C404.625 345.805 409.066 336.473 416.716 330.258L417.34 329.751C423.475 324.766 431.139 322.045 439.045 322.045H451.799H553.084H654.37H665.885C673.715 322.045 681.326 324.622 687.546 329.378L688.953 330.453C696.889 336.522 701.544 345.942 701.544 355.933C701.544 364.44 698.164 372.598 692.149 378.614L672.267 398.495C669.703 401.059 668.258 404.533 668.245 408.158V419.02C671.945 419.483 678.823 419.02 684.373 413.471C685.708 412.135 687.661 409.719 690.063 406.748C700.136 394.288 718.103 372.062 731.547 378.784C746.923 386.472 732.111 430.014 691.37 451.297C689.864 452.084 688.175 452.469 686.476 452.462C684.825 452.455 683.06 452.443 681.295 452.431L681.291 452.431L681.272 452.431C675.8 452.395 670.327 452.358 668.245 452.468V452.468H437.924V452.405C435.254 452.38 431.4 452.405 427.546 452.431L427.526 452.431L427.523 452.431C425.757 452.443 423.993 452.455 422.342 452.462C420.643 452.469 418.954 452.084 417.448 451.297C376.707 430.014 361.895 386.472 377.271 378.784C390.715 372.062 408.682 394.288 418.755 406.748C421.157 409.719 423.11 412.135 424.445 413.471C428.853 417.878 434.098 419.077 437.924 419.152V408.233Z" fill="#53AF78"/>
<path d="M437.924 408.233L439.07 408.233L439.07 408.231L437.924 408.233ZM433.901 398.495L434.711 397.685L434.711 397.685L433.901 398.495ZM414.211 378.806L413.401 379.616L413.401 379.616L414.211 378.806ZM416.716 330.258L415.993 329.368L415.993 329.368L416.716 330.258ZM417.34 329.751L418.062 330.641L418.062 330.641L417.34 329.751ZM687.546 329.378L686.85 330.288L686.85 330.288L687.546 329.378ZM688.953 330.453L689.649 329.543L689.649 329.543L688.953 330.453ZM692.149 378.614L692.959 379.424L692.959 379.424L692.149 378.614ZM672.267 398.495L671.457 397.685L671.457 397.685L672.267 398.495ZM668.245 408.158L667.098 408.153V408.158H668.245ZM668.245 419.02H667.098V420.032L668.102 420.158L668.245 419.02ZM684.373 413.471L685.183 414.281L685.183 414.281L684.373 413.471ZM690.063 406.748L689.172 406.027L689.172 406.027L690.063 406.748ZM731.547 378.784L731.034 379.809L731.034 379.809L731.547 378.784ZM691.37 451.297L691.9 452.313L691.9 452.313L691.37 451.297ZM686.476 452.462L686.471 453.608L686.471 453.608L686.476 452.462ZM681.295 452.431L681.28 453.577L681.287 453.577L681.295 452.431ZM681.291 452.431L681.306 451.285L681.3 451.285L681.291 452.431ZM681.272 452.431L681.28 451.285L681.28 451.285L681.272 452.431ZM668.245 452.468L668.184 451.323L667.098 451.38V452.468H668.245ZM668.245 452.468V453.614H669.391V452.468H668.245ZM437.924 452.468H436.778V453.614H437.924V452.468ZM437.924 452.405H439.07V451.27L437.935 451.259L437.924 452.405ZM427.546 452.431L427.538 451.285L427.538 451.285L427.546 452.431ZM427.526 452.431L427.518 451.285L427.512 451.285L427.526 452.431ZM427.523 452.431L427.53 453.577L427.537 453.577L427.523 452.431ZM422.342 452.462L422.347 453.608L422.347 453.608L422.342 452.462ZM417.448 451.297L416.918 452.313L416.918 452.313L417.448 451.297ZM377.271 378.784L377.784 379.809L377.784 379.809L377.271 378.784ZM418.755 406.748L419.646 406.027L419.646 406.027L418.755 406.748ZM424.445 413.471L423.635 414.281L423.635 414.281L424.445 413.471ZM437.924 419.152L437.901 420.298L439.07 420.321V419.152H437.924ZM436.778 408.208C436.778 408.217 436.778 408.226 436.778 408.235L439.07 408.231C439.07 408.223 439.07 408.215 439.07 408.208H436.778ZM433.091 399.306C435.451 401.667 436.778 404.869 436.778 408.208H439.07C439.07 404.261 437.502 400.476 434.711 397.685L433.091 399.306ZM413.401 379.616L433.091 399.306L434.711 397.685L415.022 377.995L413.401 379.616ZM403.478 355.661C403.478 364.646 407.048 373.263 413.401 379.616L415.022 377.995C409.098 372.072 405.771 364.038 405.771 355.661H403.478ZM415.993 329.368C408.076 335.801 403.478 345.46 403.478 355.661H405.771C405.771 346.15 410.057 337.145 417.438 331.147L415.993 329.368ZM416.617 328.862L415.993 329.368L417.438 331.147L418.062 330.641L416.617 328.862ZM439.045 320.899C430.876 320.899 422.957 323.711 416.617 328.862L418.062 330.641C423.993 325.822 431.403 323.191 439.045 323.191V320.899ZM451.799 320.899H439.045V323.191H451.799V320.899ZM553.084 320.899H451.799V323.191H553.084V320.899ZM654.37 320.899H553.084V323.191H654.37V320.899ZM665.885 320.899H654.37V323.191H665.885V320.899ZM688.242 328.467C681.823 323.559 673.966 320.899 665.885 320.899V323.191C673.463 323.191 680.83 325.685 686.85 330.288L688.242 328.467ZM689.649 329.543L688.242 328.467L686.85 330.288L688.256 331.364L689.649 329.543ZM702.69 355.933C702.69 345.585 697.868 335.829 689.649 329.543L688.256 331.364C695.909 337.216 700.398 346.299 700.398 355.933H702.69ZM692.959 379.424C699.19 373.194 702.69 364.744 702.69 355.933H700.398C700.398 364.136 697.139 372.003 691.339 377.803L692.959 379.424ZM673.078 399.306L692.959 379.424L691.339 377.803L671.457 397.685L673.078 399.306ZM669.391 408.162C669.403 404.839 670.728 401.656 673.078 399.306L671.457 397.685C668.679 400.463 667.113 404.226 667.098 408.153L669.391 408.162ZM667.098 408.158V419.02H669.391V408.158H667.098ZM683.562 412.66C678.346 417.877 671.872 418.319 668.387 417.883L668.102 420.158C672.017 420.647 679.3 420.164 685.183 414.281L683.562 412.66ZM689.172 406.027C686.749 409.025 684.844 411.379 683.562 412.66L685.183 414.281C686.573 412.891 688.574 410.413 690.954 407.468L689.172 406.027ZM732.059 377.759C728.344 375.901 724.361 376.08 720.424 377.486C716.509 378.884 712.566 381.518 708.801 384.697C701.272 391.053 694.194 399.814 689.172 406.027L690.954 407.468C696.004 401.221 702.947 392.639 710.28 386.448C713.946 383.353 717.646 380.912 721.195 379.644C724.723 378.384 728.028 378.306 731.034 379.809L732.059 377.759ZM691.9 452.313C712.496 441.554 726.56 425.161 733.538 410.433C737.024 403.077 738.774 396.066 738.631 390.336C738.488 384.612 736.43 379.944 732.059 377.759L731.034 379.809C734.352 381.467 736.208 385.126 736.339 390.393C736.471 395.654 734.855 402.301 731.467 409.452C724.698 423.738 710.984 439.758 690.839 450.282L691.9 452.313ZM686.471 453.608C688.344 453.615 690.219 453.192 691.9 452.313L690.839 450.282C689.508 450.977 688.005 451.322 686.48 451.316L686.471 453.608ZM681.287 453.577C683.052 453.589 684.819 453.601 686.471 453.608L686.48 451.316C684.832 451.309 683.068 451.297 681.303 451.285L681.287 453.577ZM681.277 453.577L681.28 453.577L681.31 451.285L681.306 451.285L681.277 453.577ZM681.264 453.577L681.283 453.577L681.3 451.285L681.28 451.285L681.264 453.577ZM668.305 453.612C670.343 453.505 675.766 453.54 681.265 453.577L681.28 451.285C675.833 451.249 670.311 451.211 668.184 451.323L668.305 453.612ZM667.098 452.468V452.468H669.391V452.468H667.098ZM668.245 451.322H437.924V453.614H668.245V451.322ZM439.07 452.468V452.405H436.778V452.468H439.07ZM437.935 451.259C435.253 451.233 431.388 451.259 427.538 451.285L427.553 453.577C431.411 453.551 435.255 453.526 437.913 453.551L437.935 451.259ZM427.538 451.285L427.518 451.285L427.535 453.577L427.554 453.577L427.538 451.285ZM427.512 451.285L427.509 451.285L427.537 453.577L427.541 453.577L427.512 451.285ZM427.515 451.285C425.75 451.297 423.986 451.309 422.338 451.316L422.347 453.608C423.999 453.601 425.765 453.589 427.53 453.577L427.515 451.285ZM422.338 451.316C420.813 451.322 419.31 450.977 417.979 450.282L416.918 452.313C418.599 453.192 420.474 453.615 422.347 453.608L422.338 451.316ZM417.979 450.282C397.834 439.758 384.12 423.738 377.351 409.452C373.964 402.301 372.347 395.654 372.479 390.393C372.61 385.126 374.466 381.467 377.784 379.809L376.759 377.759C372.388 379.944 370.33 384.612 370.187 390.336C370.044 396.066 371.794 403.077 375.28 410.433C382.258 425.161 396.322 441.554 416.918 452.313L417.979 450.282ZM377.784 379.809C380.79 378.306 384.095 378.384 387.623 379.644C391.172 380.912 394.872 383.353 398.538 386.448C405.871 392.639 412.814 401.221 417.864 407.468L419.646 406.027C414.624 399.814 407.546 391.053 400.017 384.697C396.252 381.518 392.309 378.884 388.394 377.486C384.457 376.08 380.474 375.901 376.759 377.759L377.784 379.809ZM417.864 407.468C420.244 410.413 422.245 412.891 423.635 414.281L425.256 412.66C423.974 411.379 422.069 409.025 419.646 406.027L417.864 407.468ZM423.635 414.281C428.307 418.953 433.868 420.219 437.901 420.298L437.946 418.006C434.329 417.935 429.399 416.803 425.256 412.66L423.635 414.281ZM439.07 419.152V408.233H436.778V419.152H439.07Z" fill="black"/>
<line x1="466.819" y1="452.467" x2="466.819" y2="499.641" stroke="black" stroke-width="2.29213"/>
<line x1="482.097" y1="452.467" x2="482.097" y2="499.641" stroke="black" stroke-width="2.29213"/>
<path d="M457.686 498.246H489.723" stroke="black" stroke-width="2.29213"/>
<line x1="627.701" y1="452.467" x2="627.701" y2="499.641" stroke="black" stroke-width="2.29213"/>
<line x1="642.979" y1="452.467" x2="642.979" y2="499.641" stroke="black" stroke-width="2.29213"/>
<path d="M618.567 498.246H650.604" stroke="black" stroke-width="2.29213"/>
<path d="M437.924 419.168H668.244" stroke="black" stroke-width="2.29213"/>
<path d="M372.713 399.742C381.369 415.004 406.298 441.366 442.397 441.366C480.667 441.366 532.148 440.904 554.472 441.366" stroke="black" stroke-width="2.29213" stroke-linecap="round"/>
<path d="M736.23 399.742C727.574 415.004 702.645 441.366 666.546 441.366C628.277 441.366 576.795 440.904 554.471 441.366" stroke="black" stroke-width="2.29213" stroke-linecap="round"/>
<path d="M437.924 408.233L439.07 408.233L439.07 408.231L437.924 408.233ZM433.901 398.495L434.711 397.685L434.711 397.685L433.901 398.495ZM414.211 378.806L413.401 379.616L413.401 379.616L414.211 378.806ZM416.716 330.258L415.993 329.368L415.993 329.368L416.716 330.258ZM417.34 329.751L418.062 330.641L418.062 330.641L417.34 329.751ZM687.546 329.378L686.85 330.288L686.85 330.288L687.546 329.378ZM688.953 330.453L689.649 329.543L689.649 329.543L688.953 330.453ZM692.149 378.614L692.959 379.424L692.959 379.424L692.149 378.614ZM672.267 398.495L671.457 397.685L671.457 397.685L672.267 398.495ZM668.245 408.158L667.099 408.153L667.099 408.158L668.245 408.158ZM668.244 419.02L667.098 419.02L667.098 420.032L668.102 420.158L668.244 419.02ZM684.373 413.471L683.562 412.66L683.562 412.66L684.373 413.471ZM690.063 406.748L690.954 407.469L690.958 407.464L690.063 406.748ZM690.063 406.748L689.172 406.027L689.168 406.032L690.063 406.748ZM731.547 378.784L732.059 377.759L732.059 377.759L731.547 378.784ZM693.498 450.153L692.943 449.15L692.943 449.15L693.498 450.153ZM668.244 452.468V451.322H666.784L667.131 452.74L668.244 452.468ZM668.245 452.468V453.614H669.705L669.358 452.196L668.245 452.468ZM437.924 452.468H436.778V453.614H437.924V452.468ZM437.924 452.468H439.07V451.322H437.924V452.468ZM415.463 450.231L414.909 451.235L414.909 451.235L415.463 450.231ZM377.271 378.784L376.759 377.759L376.759 377.759L377.271 378.784ZM418.755 406.748L419.646 406.027L419.646 406.027L418.755 406.748ZM424.445 413.471L423.635 414.281L423.635 414.281L424.445 413.471ZM437.924 419.152L437.901 420.298L439.07 420.321V419.152H437.924ZM436.778 408.208C436.778 408.217 436.778 408.226 436.778 408.235L439.07 408.231C439.07 408.223 439.07 408.215 439.07 408.208H436.778ZM433.091 399.306C435.452 401.667 436.778 404.869 436.778 408.208H439.07C439.07 404.261 437.502 400.476 434.711 397.685L433.091 399.306ZM413.401 379.616L433.091 399.306L434.711 397.685L415.022 377.995L413.401 379.616ZM403.479 355.661C403.479 364.646 407.048 373.263 413.401 379.616L415.022 377.995C409.098 372.072 405.771 364.038 405.771 355.661H403.479ZM415.993 329.368C408.076 335.801 403.479 345.46 403.479 355.661H405.771C405.771 346.15 410.057 337.145 417.439 331.147L415.993 329.368ZM416.617 328.862L415.993 329.368L417.439 331.147L418.062 330.641L416.617 328.862ZM439.045 320.899C430.876 320.899 422.957 323.711 416.617 328.862L418.062 330.641C423.993 325.822 431.403 323.191 439.045 323.191V320.899ZM451.799 320.899H439.045V323.191H451.799V320.899ZM553.084 320.899H451.799V323.191H553.084V320.899ZM654.37 320.899H553.084V323.191H654.37V320.899ZM665.885 320.899H654.37V323.191H665.885V320.899ZM688.242 328.467C681.823 323.559 673.966 320.899 665.885 320.899V323.191C673.463 323.191 680.83 325.685 686.85 330.288L688.242 328.467ZM689.649 329.543L688.242 328.467L686.85 330.288L688.256 331.364L689.649 329.543ZM702.69 355.933C702.69 345.585 697.868 335.829 689.649 329.543L688.256 331.364C695.909 337.216 700.398 346.299 700.398 355.933H702.69ZM692.959 379.424C699.19 373.194 702.69 364.744 702.69 355.933H700.398C700.398 364.136 697.139 372.003 691.339 377.803L692.959 379.424ZM673.078 399.306L692.959 379.424L691.339 377.803L671.457 397.685L673.078 399.306ZM669.391 408.162C669.403 404.839 670.728 401.656 673.078 399.306L671.457 397.685C668.679 400.463 667.113 404.226 667.099 408.153L669.391 408.162ZM667.099 408.158L667.098 419.02L669.39 419.02L669.391 408.158L667.099 408.158ZM683.562 412.66C678.346 417.877 671.872 418.319 668.387 417.883L668.102 420.158C672.017 420.647 679.3 420.164 685.183 414.281L683.562 412.66ZM689.172 406.028C686.749 409.025 684.844 411.379 683.562 412.66L685.183 414.281C686.573 412.891 688.574 410.413 690.954 407.469L689.172 406.028ZM689.168 406.032L689.168 406.032L690.958 407.464L690.958 407.464L689.168 406.032ZM732.059 377.759C728.344 375.901 724.361 376.08 720.424 377.486C716.509 378.884 712.567 381.518 708.801 384.697C701.272 391.053 694.195 399.814 689.172 406.027L690.955 407.468C696.005 401.221 702.947 392.639 710.28 386.448C713.946 383.353 717.646 380.912 721.195 379.644C724.723 378.384 728.028 378.306 731.034 379.809L732.059 377.759ZM694.053 451.155C713.832 440.206 727.29 424.067 733.901 409.656C737.203 402.457 738.828 395.621 738.622 390.033C738.415 384.448 736.352 379.905 732.059 377.759L731.034 379.809C734.294 381.439 736.142 384.997 736.331 390.118C736.52 395.235 735.025 401.708 731.817 408.7C725.409 422.67 712.29 438.439 692.943 449.15L694.053 451.155ZM684.053 453.614C687.51 453.614 690.978 452.857 694.053 451.155L692.943 449.15C690.257 450.637 687.182 451.322 684.053 451.322V453.614ZM668.244 453.614H684.053V451.322H668.244V453.614ZM667.131 452.74L667.131 452.741L669.358 452.196L669.358 452.195L667.131 452.74ZM668.245 451.322H437.924V453.614H668.245V451.322ZM439.07 452.468V452.468H436.778V452.468H439.07ZM437.924 451.322H424.603V453.614H437.924V451.322ZM424.603 451.322C421.582 451.322 418.612 450.66 416.016 449.228L414.909 451.235C417.892 452.88 421.253 453.614 424.603 453.614V451.322ZM416.016 449.228C396.616 438.529 383.457 422.742 377.024 408.75C373.805 401.747 372.301 395.263 372.486 390.136C372.672 385.006 374.52 381.441 377.784 379.809L376.759 377.759C372.461 379.908 370.398 384.459 370.196 390.053C369.994 395.651 371.627 402.499 374.942 409.708C381.577 424.141 395.076 440.297 414.909 451.235L416.016 449.228ZM377.784 379.809C380.79 378.306 384.095 378.384 387.623 379.644C391.172 380.912 394.872 383.353 398.538 386.448C405.871 392.639 412.814 401.221 417.864 407.468L419.646 406.027C414.624 399.814 407.546 391.053 400.017 384.697C396.252 381.518 392.309 378.884 388.394 377.486C384.457 376.08 380.474 375.901 376.759 377.759L377.784 379.809ZM417.864 407.468C420.244 410.413 422.245 412.891 423.635 414.281L425.256 412.66C423.974 411.379 422.069 409.025 419.646 406.027L417.864 407.468ZM423.635 414.281C428.307 418.953 433.868 420.219 437.901 420.298L437.947 418.006C434.329 417.935 429.399 416.803 425.256 412.66L423.635 414.281ZM439.07 419.152V408.233H436.778V419.152H439.07Z" fill="black"/>
<path d="M53.709 112.314L139.976 170.353V524.611L53.709 586.785V112.314Z" fill="#98BBCE" stroke="black" stroke-width="2.29213"/>
<path d="M60.1689 125.781L133.231 174.776V529.196L60.1689 582.202V125.781Z" fill="#E0E0E0" stroke="black" stroke-width="2.29213"/>
<g clip-path="url(#clip1_6563_155567)">
<path d="M276.754 332.941C274.445 336.809 279.936 341.146 282.97 342.831C278.826 342.392 273.291 343.491 284.303 351.404C295.314 359.316 302.36 351.184 304.506 346.129C307.593 341.108 316.52 339.05 321.934 337.802L322.045 337.776C292.073 316.676 279.64 328.105 276.754 332.941Z" fill="#53AF78"/>
<path d="M282.97 342.831L282.85 343.971L283.527 341.83L282.97 342.831ZM276.754 332.941L275.77 332.353L275.77 332.353L276.754 332.941ZM322.045 337.776L322.302 338.893L322.704 336.839L322.045 337.776ZM321.934 337.802L322.191 338.919L322.191 338.919L321.934 337.802ZM304.506 346.129L303.529 345.528L303.451 345.681L304.506 346.129ZM284.303 351.404L284.971 350.473L284.971 350.473L284.303 351.404ZM283.527 341.83C282.086 341.029 280.085 339.607 278.744 337.977C277.372 336.31 276.969 334.816 277.738 333.528L275.77 332.353C274.23 334.934 275.418 337.543 276.974 339.433C278.559 341.359 280.821 342.949 282.414 343.833L283.527 341.83ZM277.738 333.528C279.03 331.363 282.57 327.548 289.372 326.771C296.201 325.991 306.521 328.249 321.385 338.713L322.704 336.839C307.597 326.204 296.715 323.626 289.112 324.494C281.484 325.365 277.364 329.683 275.77 332.353L277.738 333.528ZM321.787 336.659L321.676 336.685L322.191 338.919L322.302 338.893L321.787 336.659ZM321.676 336.685C318.981 337.306 315.313 338.15 311.927 339.484C308.577 340.804 305.276 342.688 303.529 345.528L305.482 346.729C306.823 344.548 309.528 342.893 312.767 341.617C315.97 340.355 319.473 339.545 322.191 338.919L321.676 336.685ZM303.451 345.681C302.445 348.05 300.303 351.085 297.223 352.601C294.254 354.061 290.19 354.222 284.971 350.473L283.634 352.334C289.427 356.497 294.391 356.549 298.235 354.657C301.966 352.821 304.42 349.262 305.561 346.576L303.451 345.681ZM284.971 350.473C282.248 348.516 280.629 347.036 279.762 345.949C279.329 345.407 279.124 345.013 279.042 344.752C279.002 344.626 278.995 344.546 278.995 344.502C278.996 344.462 279.002 344.446 279.004 344.442C279.016 344.415 279.2 344.158 280.082 344.001C280.867 343.862 281.873 343.868 282.85 343.971L283.091 341.692C281.996 341.576 280.756 341.554 279.682 341.744C278.704 341.918 277.415 342.348 276.902 343.529C276.364 344.766 276.963 346.117 277.97 347.379C279.033 348.71 280.851 350.335 283.634 352.334L284.971 350.473Z" fill="black"/>
<path d="M192.647 298.195C199.046 296.074 203.133 303.094 204.377 306.869C205.491 305.512 209.253 303.265 215.391 305.139C222.037 307.169 221.842 327.181 211.973 334.952C211.868 335.183 210.792 335.357 209.566 335.337C209.154 337.05 208.168 338.818 206.659 339.621C202.879 341.632 199.323 343.372 195.167 343.901C193.771 341.277 189.589 334.109 184.028 326.419C177.077 316.807 184.647 300.845 192.647 298.195Z" fill="#53AF78"/>
<path d="M204.377 306.869L203.289 307.228L205.263 307.596L204.377 306.869ZM192.647 298.195L192.286 297.107L192.647 298.195ZM184.028 326.419L183.1 327.091L184.028 326.419ZM195.167 343.901L194.155 344.439L195.312 345.037L195.167 343.901ZM211.973 334.952L211.264 334.052L210.929 334.479L211.973 334.952ZM207.358 331.446L206.82 330.434L206.622 330.568L207.358 331.446ZM205.466 306.511C204.806 304.51 203.395 301.634 201.252 299.508C199.078 297.35 196.023 295.868 192.286 297.107L193.007 299.282C195.669 298.401 197.858 299.369 199.638 301.135C201.45 302.932 202.704 305.454 203.289 307.228L205.466 306.511ZM192.286 297.107C190.026 297.856 187.888 299.507 186.077 301.627C184.256 303.756 182.711 306.421 181.655 309.302C179.557 315.028 179.319 321.863 183.1 327.091L184.957 325.748C181.786 321.364 181.858 315.411 183.807 310.091C184.775 307.448 186.187 305.025 187.819 303.116C189.459 301.197 191.268 299.859 193.007 299.282L192.286 297.107ZM183.1 327.091C188.628 334.736 192.783 341.86 194.155 344.439L196.179 343.362C194.759 340.695 190.55 333.481 184.957 325.748L183.1 327.091ZM195.312 345.037C199.695 344.48 203.415 342.646 207.198 340.632L206.121 338.609C202.344 340.619 198.951 342.264 195.022 342.764L195.312 345.037ZM215.725 304.043C209.199 302.05 204.934 304.383 203.491 306.143L205.263 307.596C206.047 306.64 209.307 304.48 215.056 306.236L215.725 304.043ZM212.682 335.852C217.963 331.694 220.553 324.382 221.018 317.975C221.252 314.754 220.957 311.66 220.135 309.198C219.328 306.779 217.914 304.712 215.725 304.043L215.056 306.236C216.191 306.582 217.245 307.777 217.961 309.924C218.663 312.027 218.95 314.803 218.732 317.81C218.293 323.859 215.851 330.439 211.264 334.052L212.682 335.852ZM207.198 340.632C209.113 339.613 210.229 337.481 210.68 335.605L208.452 335.069C208.079 336.619 207.224 338.022 206.121 338.609L207.198 340.632ZM210.68 335.605C211.017 334.204 211.057 332.649 210.544 331.521C210.274 330.928 209.797 330.348 209.034 330.113C208.285 329.883 207.515 330.064 206.82 330.434L207.897 332.458C208.276 332.256 208.397 332.315 208.36 332.304C208.31 332.289 208.366 332.27 208.457 332.47C208.666 332.929 208.735 333.892 208.452 335.069L210.68 335.605ZM206.622 330.568C205.689 331.351 205.018 332.136 204.76 332.955C204.623 333.391 204.599 333.851 204.734 334.3C204.867 334.743 205.129 335.088 205.422 335.347C205.976 335.837 206.73 336.097 207.398 336.247C208.097 336.403 208.855 336.472 209.547 336.483L209.585 334.191C209.003 334.182 208.406 334.124 207.9 334.01C207.362 333.89 207.061 333.736 206.94 333.629C206.895 333.589 206.914 333.591 206.929 333.639C206.945 333.693 206.926 333.708 206.947 333.644C207.004 333.461 207.26 333.024 208.095 332.324L206.622 330.568ZM209.547 336.483C210.212 336.494 210.857 336.453 211.372 336.37C211.624 336.33 211.884 336.273 212.113 336.191C212.226 336.15 212.368 336.09 212.508 336C212.629 335.923 212.871 335.746 213.017 335.425L210.929 334.479C211.048 334.215 211.234 334.095 211.271 334.071C211.327 334.035 211.358 334.026 211.337 334.034C211.296 334.049 211.191 334.078 211.008 334.107C210.652 334.164 210.145 334.201 209.585 334.191L209.547 336.483Z" fill="black"/>
<path d="M187.81 321.883L186.702 321.591L188.027 323.009L187.81 321.883ZM188.918 322.176C189.223 321.02 189.783 319.339 190.455 318.039C190.796 317.379 191.125 316.9 191.408 316.629C191.701 316.346 191.717 316.486 191.569 316.441L192.239 314.248C191.214 313.935 190.359 314.458 189.819 314.976C189.269 315.505 188.803 316.244 188.419 316.986C187.642 318.488 187.031 320.344 186.702 321.591L188.918 322.176ZM191.569 316.441C192.422 316.701 192.658 317.049 192.746 317.294C192.864 317.619 192.853 318.123 192.628 318.861L194.82 319.53C195.096 318.624 195.272 317.537 194.902 316.515C194.503 315.413 193.578 314.657 192.239 314.248L191.569 316.441ZM192.628 318.861C192.648 318.794 192.627 318.917 192.251 319.166C191.916 319.388 191.444 319.616 190.88 319.833C189.759 320.266 188.45 320.593 187.593 320.758L188.027 323.009C188.974 322.826 190.422 322.467 191.705 321.971C192.345 321.725 192.987 321.428 193.517 321.077C194.005 320.753 194.599 320.254 194.82 319.53L192.628 318.861Z" fill="black"/>
<path d="M203.992 306.54C202.169 308.556 199.634 312.219 197.832 316.763C196.03 321.309 194.931 326.819 196.105 332.478L198.35 332.013C197.293 326.925 198.268 321.884 199.963 317.607C201.66 313.328 204.047 309.897 205.692 308.078L203.992 306.54ZM196.105 332.478C197.212 337.812 196.989 340.573 196.473 341.869C196.228 342.481 195.957 342.674 195.816 342.738C195.667 342.806 195.486 342.812 195.285 342.738L194.501 344.892C195.153 345.13 195.97 345.187 196.768 344.823C197.573 344.456 198.197 343.733 198.602 342.718C199.383 340.76 199.473 337.426 198.35 332.013L196.105 332.478Z" fill="black"/>
<path d="M264.455 342.39L264.43 343.535L264.43 343.535L264.455 342.39ZM292.247 337.806L293.057 338.616L293.148 338.514L292.247 337.806ZM255.839 360.229C255.286 357.278 255.111 352.924 256.287 349.4C256.87 347.653 257.763 346.175 259.041 345.147C260.303 344.132 262.03 343.483 264.43 343.535L264.479 341.244C261.608 341.181 259.337 341.967 257.605 343.361C255.889 344.741 254.791 346.643 254.113 348.674C252.768 352.704 252.994 357.489 253.587 360.651L255.839 360.229ZM264.43 343.535C267.674 343.606 270.481 343.888 273.034 344.143C275.569 344.397 277.9 344.63 280.099 344.574C282.32 344.518 284.441 344.167 286.586 343.24C288.726 342.315 290.831 340.842 293.057 338.616L291.436 336.995C289.365 339.067 287.494 340.351 285.677 341.136C283.864 341.92 282.046 342.232 280.041 342.283C278.013 342.334 275.831 342.119 273.263 341.863C270.713 341.608 267.825 341.317 264.479 341.244L264.43 343.535ZM293.148 338.514C293.98 337.455 296.679 335.487 300.446 336.875L301.238 334.725C296.295 332.903 292.615 335.482 291.345 337.097L293.148 338.514Z" fill="black"/>
<path d="M289.382 340.67C291.578 341.911 296.659 344.108 299.41 342.962" stroke="black" stroke-width="2.29213" stroke-linejoin="bevel"/>
<path d="M293.393 336.944C293.107 335.607 292.534 334.365 293.393 332.359" stroke="black" stroke-width="2.29213" stroke-linejoin="bevel"/>
<mask id="path-33-inside-1_6563_155567" fill="white">
<path d="M232.651 359.293H272.764V383.933C272.764 388.997 268.659 393.102 263.595 393.102H241.82C236.756 393.102 232.651 388.997 232.651 383.933V359.293Z"/>
</mask>
<path d="M232.651 359.293H272.764V383.933C272.764 388.997 268.659 393.102 263.595 393.102H241.82C236.756 393.102 232.651 388.997 232.651 383.933V359.293Z" fill="#98BBCE"/>
<path d="M232.651 359.293V357.001H230.359V359.293H232.651ZM272.764 359.293H275.056V357.001H272.764V359.293ZM232.651 361.585H272.764V357.001H232.651V361.585ZM270.472 359.293V383.933H275.056V359.293H270.472ZM263.595 390.81H241.82V395.394H263.595V390.81ZM234.943 383.933V359.293H230.359V383.933H234.943ZM241.82 390.81C238.022 390.81 234.943 387.731 234.943 383.933H230.359C230.359 390.263 235.49 395.394 241.82 395.394V390.81ZM270.472 383.933C270.472 387.731 267.393 390.81 263.595 390.81V395.394C269.925 395.394 275.056 390.263 275.056 383.933H270.472Z" fill="black" mask="url(#path-33-inside-1_6563_155567)"/>
<path d="M255.573 328.635C255.573 327.452 255.392 325.657 254.812 324.113C254.256 322.632 253.123 320.899 250.989 320.899V323.191C251.605 323.191 252.191 323.654 252.666 324.919C253.118 326.121 253.281 327.621 253.281 328.635H255.573ZM250.989 320.899C249.952 320.899 249.082 321.138 248.391 321.619C247.699 322.101 247.289 322.754 247.049 323.402C246.6 324.614 246.691 326.034 246.691 326.629H248.983C248.983 325.792 248.931 324.92 249.198 324.198C249.316 323.879 249.479 323.655 249.7 323.5C249.923 323.346 250.306 323.191 250.989 323.191V320.899Z" fill="black"/>
<path d="M236.376 343.534L235.721 344.474L235.721 344.474L236.376 343.534ZM246.629 361.671C247.871 358.058 247.242 349.717 237.032 342.594L235.721 344.474C245.223 351.104 245.32 358.426 244.461 360.925L246.629 361.671ZM237.032 342.594C231.25 338.56 229.32 332.428 228.001 326.798C227.358 324.053 226.838 321.305 226.047 319.198C225.249 317.075 224.035 315.2 221.755 314.63L221.2 316.854C222.358 317.143 223.185 318.098 223.901 320.004C224.623 321.926 225.087 324.408 225.77 327.321C227.102 333.008 229.182 339.912 235.721 344.474L237.032 342.594ZM221.755 314.63C219.142 313.977 215.755 312.454 212.531 310.772C209.326 309.1 206.363 307.313 204.624 306.185L203.376 308.108C205.171 309.272 208.196 311.095 211.471 312.804C214.727 314.503 218.312 316.132 221.2 316.854L221.755 314.63Z" fill="black"/>
<path d="M218.325 278.21L217.196 278.404L218.325 278.21ZM251.847 359.554C251.721 354.918 249.698 348.222 246.807 340.728C243.899 333.189 240.05 324.688 236.163 316.383C232.267 308.059 228.344 299.955 225.25 293.138C223.705 289.734 222.377 286.671 221.37 284.086C220.357 281.482 219.698 279.427 219.455 278.016L217.196 278.404C217.48 280.057 218.213 282.292 219.234 284.917C220.263 287.56 221.611 290.666 223.163 294.085C226.262 300.914 230.212 309.075 234.087 317.355C237.971 325.653 241.791 334.093 244.668 341.553C247.563 349.057 249.442 355.418 249.556 359.616L251.847 359.554ZM219.455 278.016C218.891 274.736 218.77 272.335 218.952 270.615C219.135 268.886 219.607 267.981 220.095 267.517C220.554 267.081 221.192 266.881 222.109 266.953C223.048 267.027 224.17 267.382 225.413 267.94C227.926 269.066 230.499 270.802 232.617 272.033C233.132 272.332 233.625 272.604 234.073 272.817C234.507 273.023 234.966 273.207 235.397 273.286C235.785 273.357 236.49 273.403 237.034 272.871C237.563 272.353 237.566 271.648 237.513 271.203L235.237 271.473C235.268 271.733 235.168 271.49 235.431 271.232C235.71 270.96 235.987 271.064 235.811 271.031C235.678 271.007 235.435 270.926 235.057 270.746C234.693 270.573 234.262 270.338 233.768 270.051C231.848 268.935 229.007 267.039 226.351 265.848C225.009 265.247 223.609 264.772 222.288 264.668C220.945 264.563 219.587 264.839 218.516 265.855C217.475 266.845 216.884 268.371 216.673 270.374C216.46 272.388 216.614 275.022 217.196 278.404L219.455 278.016Z" fill="black"/>
<path d="M224.783 277.464C233.749 264.944 246.955 275.303 252.437 282.048C259.443 289.041 266.088 308.331 268.535 317.102L257.567 316.905C257.83 311.842 257.843 301.549 255.789 300.871C253.736 300.194 253.526 311.446 253.678 317.156L248.286 316.049C248.719 312.088 249.277 304.421 248.043 305.447C246.809 306.473 244.879 312.548 244.068 315.457L236.405 312.513C238.957 305.424 243.137 292.014 239.435 295.091C235.733 298.168 233.648 307.104 233.068 311.188L225.333 306.813C221.414 302.247 215.816 289.984 224.783 277.464Z" fill="#53AF78"/>
<path d="M252.437 282.048L251.548 282.77L251.628 282.859L252.437 282.048ZM224.783 277.464L225.715 278.131L225.715 278.131L224.783 277.464ZM225.333 306.813L224.464 307.559L224.769 307.81L225.333 306.813ZM233.068 311.188L232.504 312.185L234.203 311.349L233.068 311.188ZM236.405 312.513L235.327 312.124L235.994 313.583L236.405 312.513ZM244.068 315.457L243.657 316.527L245.172 315.765L244.068 315.457ZM248.286 316.049L247.147 315.925L248.056 317.172L248.286 316.049ZM253.678 317.156L253.447 318.279L254.823 317.126L253.678 317.156ZM255.789 300.871L255.43 301.959L255.43 301.959L255.789 300.871ZM257.567 316.905L256.422 316.845L257.546 318.05L257.567 316.905ZM268.535 317.102L268.515 318.248L269.639 316.794L268.535 317.102ZM253.327 281.325C250.518 277.869 245.688 273.422 240.31 271.455C237.602 270.465 234.693 270.082 231.822 270.842C228.937 271.606 226.22 273.489 223.851 276.797L225.715 278.131C227.829 275.179 230.125 273.662 232.409 273.058C234.707 272.449 237.124 272.73 239.523 273.608C244.361 275.377 248.875 279.482 251.548 282.77L253.327 281.325ZM223.851 276.797C214.469 289.898 220.338 302.754 224.464 307.559L226.203 306.066C222.489 301.74 217.164 290.071 225.715 278.131L223.851 276.797ZM224.769 307.81L232.504 312.185L233.633 310.19L225.898 305.815L224.769 307.81ZM234.203 311.349C234.485 309.365 235.137 306.18 236.167 303.129C237.218 300.016 238.583 297.29 240.167 295.973L238.702 294.21C236.585 295.97 235.057 299.25 233.995 302.396C232.912 305.602 232.232 308.928 231.934 311.027L234.203 311.349ZM240.167 295.973C240.351 295.82 240.448 295.773 240.466 295.766C240.483 295.759 240.318 295.83 240.078 295.742C239.826 295.65 239.727 295.47 239.711 295.436C239.7 295.413 239.725 295.459 239.741 295.627C239.81 296.349 239.604 297.784 239.149 299.729C238.263 303.518 236.598 308.594 235.327 312.124L237.483 312.901C238.765 309.342 240.465 304.169 241.381 300.251C241.828 298.342 242.132 296.558 242.023 295.41C241.994 295.11 241.932 294.773 241.786 294.462C241.635 294.14 241.353 293.768 240.866 293.589C240.391 293.416 239.94 293.507 239.612 293.638C239.286 293.769 238.981 293.978 238.702 294.21L240.167 295.973ZM235.994 313.583L243.657 316.527L244.479 314.387L236.816 311.443L235.994 313.583ZM245.172 315.765C245.572 314.33 246.248 312.115 246.973 310.141C247.336 309.152 247.703 308.245 248.047 307.534C248.219 307.178 248.377 306.888 248.517 306.669C248.586 306.561 248.646 306.478 248.695 306.417C248.719 306.387 248.739 306.365 248.753 306.35C248.768 306.335 248.776 306.328 248.775 306.328L247.31 304.566C247.021 304.806 246.781 305.129 246.585 305.435C246.38 305.756 246.179 306.132 245.984 306.536C245.593 307.343 245.196 308.329 244.821 309.351C244.07 311.398 243.375 313.674 242.964 315.149L245.172 315.765ZM248.775 306.328C248.745 306.354 248.557 306.503 248.24 306.5C247.882 306.495 247.65 306.303 247.555 306.191C247.475 306.097 247.462 306.035 247.479 306.084C247.492 306.12 247.512 306.194 247.534 306.317C247.627 306.834 247.663 307.722 247.644 308.858C247.605 311.092 247.362 313.959 247.147 315.925L249.426 316.174C249.644 314.178 249.896 311.232 249.936 308.898C249.955 307.751 249.926 306.667 249.79 305.911C249.755 305.715 249.708 305.515 249.642 305.326C249.581 305.151 249.478 304.913 249.296 304.701C249.098 304.47 248.753 304.214 248.268 304.208C247.824 304.202 247.495 304.412 247.31 304.566L248.775 306.328ZM248.056 317.172L253.447 318.279L253.908 316.034L248.517 314.927L248.056 317.172ZM254.823 317.126C254.748 314.292 254.763 310.098 255.048 306.714C255.192 305.009 255.399 303.582 255.672 302.648C255.813 302.163 255.939 301.931 256 301.855C256.023 301.826 255.982 301.89 255.858 301.941C255.708 302.002 255.548 301.998 255.43 301.959L256.148 299.783C255.773 299.659 255.371 299.664 254.993 299.818C254.64 299.962 254.384 300.204 254.205 300.429C253.862 300.861 253.636 301.441 253.471 302.006C253.132 303.169 252.911 304.785 252.764 306.522C252.469 310.023 252.456 314.31 252.532 317.187L254.823 317.126ZM255.43 301.959C255.279 301.91 255.319 301.84 255.461 302.099C255.59 302.332 255.728 302.703 255.858 303.227C256.117 304.269 256.294 305.698 256.403 307.32C256.62 310.55 256.552 314.341 256.422 316.845L258.711 316.964C258.844 314.406 258.915 310.519 258.69 307.167C258.578 305.498 258.39 303.911 258.082 302.674C257.929 302.059 257.733 301.474 257.47 300.995C257.221 300.542 256.813 300.002 256.148 299.783L255.43 301.959ZM257.546 318.05L268.515 318.248L268.556 315.956L257.587 315.759L257.546 318.05ZM269.639 316.794C268.405 312.37 266.117 305.309 263.253 298.466C260.409 291.671 256.925 284.908 253.247 281.236L251.628 282.859C254.955 286.18 258.296 292.559 261.138 299.35C263.96 306.093 266.218 313.062 267.431 317.41L269.639 316.794Z" fill="black"/>
<path d="M274.197 269.237C270.751 264.304 251.596 252.511 237.237 258.076C230.738 260.595 232.531 266.974 237.236 272.115C250.416 276.413 252.745 283.475 255.573 287.301C260.601 295.827 265.887 308.217 268.466 316.525L275.658 303.632C270.689 302.626 266.513 296.321 266.368 294.164C266.223 292.006 271.082 297.465 276.575 299.035L276.575 290.439C272.631 289.872 265.067 284.542 266.368 283.603C267.669 282.663 274.043 285.629 277.062 285.568L276.575 279.551C269.074 280.258 254.581 275.505 258.483 272.687C262.384 269.868 272.476 274.798 276.575 275.254L274.197 269.237Z" fill="#53AF78"/>
<path d="M237.237 258.076L237.651 259.145L237.237 258.076ZM274.197 269.237L275.136 268.581L275.263 268.816L274.197 269.237ZM276.575 275.254L277.641 274.832L276.449 276.393L276.575 275.254ZM276.575 279.551L276.468 278.41L277.718 279.459L276.575 279.551ZM277.062 285.568L278.204 285.476L277.085 286.714L277.062 285.568ZM276.575 290.439L276.739 289.305L277.722 290.439L276.575 290.439ZM276.575 299.035L277.722 299.035L276.261 300.136L276.575 299.035ZM266.368 294.164L267.512 294.087L267.512 294.087L266.368 294.164ZM275.658 303.632L275.885 302.509L276.659 304.19L275.658 303.632ZM268.466 316.525L269.467 317.083L267.372 316.865L268.466 316.525ZM255.573 287.301L256.495 286.62L256.56 286.719L255.573 287.301ZM237.236 272.115L236.881 273.205L236.391 272.889L237.236 272.115ZM236.822 257.008C244.402 254.07 253.117 255.744 260.243 258.659C263.827 260.125 267.065 261.927 269.634 263.683C272.174 265.42 274.155 267.176 275.136 268.581L273.257 269.893C272.516 268.832 270.81 267.264 268.341 265.575C265.901 263.907 262.805 262.184 259.375 260.78C252.473 257.957 244.43 256.517 237.651 259.145L236.822 257.008ZM275.263 268.816L277.641 274.832L275.51 275.675L273.131 269.659L275.263 268.816ZM276.449 276.393C275.3 276.265 273.798 275.837 272.234 275.36C270.625 274.871 268.896 274.311 267.16 273.85C265.425 273.388 263.762 273.047 262.326 272.979C260.865 272.911 259.818 273.136 259.154 273.616L257.811 271.758C259.098 270.828 260.775 270.612 262.433 270.69C264.114 270.768 265.962 271.159 267.75 271.635C269.537 272.11 271.343 272.693 272.902 273.168C274.505 273.656 275.801 274.015 276.702 274.115L276.449 276.393ZM259.154 273.616C258.864 273.825 258.987 273.857 258.973 273.712C258.97 273.678 258.983 273.844 259.373 274.194C260.127 274.87 261.631 275.646 263.638 276.361C267.618 277.78 272.941 278.742 276.468 278.41L276.683 280.692C272.709 281.067 267.034 280.006 262.868 278.52C260.801 277.784 258.944 276.887 257.844 275.901C257.307 275.42 256.769 274.758 256.691 273.927C256.602 272.986 257.126 272.253 257.811 271.758L259.154 273.616ZM277.718 279.459L278.204 285.476L275.92 285.661L275.433 279.644L277.718 279.459ZM277.085 286.714C276.172 286.732 275.085 286.526 274.028 286.268C272.956 286.006 271.802 285.66 270.752 285.357C269.678 285.046 268.723 284.783 267.965 284.651C267.587 284.584 267.305 284.56 267.111 284.565C266.889 284.572 266.925 284.614 267.039 284.532L265.697 282.674C266.137 282.356 266.656 282.286 267.044 282.274C267.459 282.262 267.912 282.314 268.361 282.393C269.259 282.55 270.33 282.849 271.389 283.155C272.473 283.468 273.56 283.794 274.572 284.041C275.6 284.293 276.443 284.434 277.039 284.422L277.085 286.714ZM267.039 284.532C267.193 284.42 267.319 284.234 267.356 284.016C267.371 283.924 267.366 283.85 267.359 283.806C267.353 283.761 267.343 283.737 267.343 283.735C267.342 283.733 267.346 283.745 267.361 283.771C267.375 283.797 267.397 283.832 267.428 283.877C267.491 283.967 267.581 284.079 267.704 284.213C268.208 284.761 269.074 285.477 270.152 286.215C271.219 286.945 272.443 287.663 273.628 288.23C274.829 288.804 275.92 289.187 276.739 289.305L276.412 291.573C275.259 291.407 273.925 290.912 272.64 290.298C271.338 289.676 270.012 288.896 268.857 288.106C267.714 287.323 266.687 286.495 266.015 285.762C265.693 285.411 265.369 284.994 265.2 284.55C265.113 284.322 265.035 284.001 265.094 283.64C265.161 283.24 265.38 282.902 265.697 282.674L267.039 284.532ZM277.722 290.439L277.722 299.035L275.429 299.035L275.429 290.439L277.722 290.439ZM276.261 300.136C273.307 299.293 270.571 297.423 268.71 296.147C267.716 295.466 267.062 295.019 266.662 294.84C266.574 294.801 266.551 294.8 266.576 294.804C266.591 294.807 266.76 294.839 266.981 294.747C267.599 294.489 267.498 293.884 267.512 294.087L265.225 294.24C265.202 293.904 265.221 292.998 266.098 292.632C266.45 292.485 266.783 292.511 266.996 292.551C267.217 292.592 267.424 292.67 267.597 292.748C268.239 293.034 269.116 293.646 270.006 294.256C271.911 295.563 274.351 297.207 276.89 297.933L276.261 300.136ZM267.512 294.087C267.531 294.375 267.722 294.997 268.191 295.869C268.64 296.703 269.284 297.658 270.076 298.586C271.686 300.471 273.764 302.079 275.885 302.509L275.43 304.755C272.583 304.179 270.089 302.131 268.332 300.074C267.441 299.03 266.703 297.941 266.173 296.955C265.663 296.007 265.278 295.031 265.225 294.24L267.512 294.087ZM276.659 304.19L269.467 317.083L267.466 315.967L274.657 303.074L276.659 304.19ZM267.372 316.865C264.817 308.633 259.565 296.327 254.586 287.883L256.56 286.719C261.637 295.328 266.958 307.8 269.561 316.185L267.372 316.865ZM254.651 287.982C253.918 286.99 253.185 285.742 252.407 284.542C251.603 283.303 250.675 281.988 249.447 280.665C247.005 278.037 243.299 275.298 236.881 273.205L237.592 271.026C244.353 273.23 248.401 276.171 251.126 279.105C252.481 280.563 253.49 282 254.33 283.295C255.195 284.629 255.814 285.699 256.495 286.62L254.651 287.982ZM236.391 272.889C233.962 270.235 232.149 267.126 231.893 264.213C231.763 262.728 232.037 261.268 232.873 259.984C233.705 258.706 235.029 257.703 236.822 257.008L237.651 259.145C236.195 259.709 235.306 260.449 234.794 261.235C234.285 262.017 234.083 262.945 234.177 264.012C234.369 266.204 235.806 268.855 238.082 271.341L236.391 272.889Z" fill="black"/>
<path d="M243.826 330.728C243.138 324.31 250.415 327.099 254.14 329.296C273.05 317.548 266.46 327.004 267.606 334.74C268.523 340.929 253.663 348.875 247.55 350.212C240.96 342.476 244.685 338.751 243.826 330.728Z" fill="#53AF78"/>
<path d="M254.14 329.296L253.558 330.283L254.745 330.269L254.14 329.296ZM243.826 330.728L244.965 330.606L243.826 330.728ZM247.55 350.212L246.678 350.955L247.795 351.331L247.55 350.212ZM267.606 334.74L266.473 334.908L266.473 334.908L267.606 334.74ZM254.722 328.309C252.818 327.185 249.882 325.829 247.416 325.639C246.182 325.544 244.825 325.723 243.837 326.654C242.824 327.609 242.495 329.069 242.686 330.85L244.965 330.606C244.812 329.178 245.135 328.581 245.409 328.322C245.71 328.039 246.275 327.85 247.24 327.924C249.172 328.073 251.738 329.21 253.558 330.283L254.722 328.309ZM242.686 330.85C242.89 332.756 242.824 334.415 242.701 335.98C242.581 337.51 242.393 339.067 242.393 340.577C242.393 343.765 243.216 346.891 246.678 350.955L248.423 349.469C245.295 345.797 244.685 343.192 244.685 340.577C244.685 339.187 244.855 337.825 244.986 336.159C245.114 334.527 245.191 332.712 244.965 330.606L242.686 330.85ZM247.795 351.331C251.031 350.623 256.408 348.228 260.853 345.247C263.082 343.752 265.143 342.066 266.6 340.313C268.032 338.59 269.041 336.605 268.74 334.572L266.473 334.908C266.63 335.969 266.125 337.298 264.838 338.848C263.575 340.367 261.711 341.912 259.576 343.344C255.292 346.217 250.182 348.463 247.305 349.092L247.795 351.331ZM268.74 334.572C268.477 332.798 268.655 330.899 268.82 329.076C268.899 328.192 268.977 327.305 268.974 326.517C268.972 325.747 268.896 324.927 268.575 324.231C268.218 323.456 267.577 322.889 266.643 322.694C265.802 322.519 264.818 322.665 263.718 323.009C261.507 323.701 258.265 325.384 253.535 328.322L254.745 330.269C259.47 327.334 262.496 325.793 264.403 325.196C265.363 324.896 265.901 324.881 266.175 324.938C266.356 324.976 266.422 325.035 266.494 325.192C266.603 325.428 266.68 325.843 266.682 326.524C266.684 327.186 266.618 327.965 266.537 328.871C266.378 330.63 266.162 332.814 266.473 334.908L268.74 334.572Z" fill="black"/>
<path d="M253.853 329.297C254.617 331.78 253.166 340.212 250.415 342.963" stroke="black" stroke-width="2.29213" stroke-linejoin="bevel"/>
<path d="M253.567 333.793C252.517 334.27 250.358 335.627 250.129 337.231" stroke="black" stroke-width="2.29213" stroke-linejoin="bevel"/>
<path d="M254.713 332.646C256.527 333.411 260.157 335.34 260.157 336.944" stroke="black" stroke-width="2.29213" stroke-linejoin="bevel"/>
<path d="M256.433 346.686C258.152 348.5 261.361 353.619 260.444 359.579" stroke="black" stroke-width="2.29213" stroke-linejoin="bevel"/>
</g>
<rect x="233.225" y="391.953" width="59.0223" height="109" fill="#F8C66D" stroke="black" stroke-width="2.29213"/>
<rect x="186.809" y="391.953" width="46.4156" height="109" fill="#F8C66D" stroke="black" stroke-width="2.29213"/>
<rect x="292.246" y="391.953" width="59.0223" height="109" fill="#F7C56C" stroke="black" stroke-width="2.29213"/>
<rect x="186.809" y="391.953" width="164.46" height="19.4831" stroke="black" stroke-width="2.29213"/>
<line x1="257.864" y1="402.268" x2="268.179" y2="402.268" stroke="black" stroke-width="2.29213"/>
<line x1="315.741" y1="402.268" x2="326.056" y2="402.268" stroke="black" stroke-width="2.29213"/>
<line x1="205.146" y1="401.694" x2="215.46" y2="401.694" stroke="black" stroke-width="2.29213"/>
<path d="M441.063 319.18C437.84 319.18 434.105 323.086 432.64 325.039C444.652 326.504 451.073 371.306 452.782 393.523H530.055C530.055 387.297 525.294 355.802 522.364 337.857C520.021 323.501 508.448 319.424 502.955 319.18H441.063Z" fill="#CBCBCB"/>
<path d="M432.64 325.039L431.723 324.352L432.501 326.177L432.64 325.039ZM502.955 319.18L503.005 318.035L502.955 318.034V319.18ZM522.364 337.857L523.496 337.672L523.496 337.672L522.364 337.857ZM530.055 393.523V394.669L531.201 393.523H530.055ZM452.782 393.523L451.639 393.611L452.782 394.669V393.523ZM433.557 325.727C434.242 324.813 435.477 323.421 436.91 322.271C438.385 321.085 439.862 320.326 441.063 320.326V318.034C439.041 318.034 437.038 319.227 435.474 320.484C433.867 321.774 432.502 323.312 431.723 324.352L433.557 325.727ZM441.063 320.326H502.955V318.034H441.063V320.326ZM502.904 320.325C508.049 320.553 519.005 324.392 521.233 338.042L523.496 337.672C521.036 322.611 508.847 318.294 503.005 318.035L502.904 320.325ZM521.233 338.042C522.697 347.008 524.619 359.361 526.174 370.247C527.737 381.186 528.909 390.513 528.909 393.523H531.201C531.201 390.307 529.993 380.774 528.443 369.923C526.885 359.019 524.961 346.651 523.496 337.672L521.233 338.042ZM530.055 392.377H452.782V394.669H530.055V392.377ZM453.925 393.435C453.067 382.292 451.029 365.474 447.69 351.237C446.023 344.126 444.018 337.598 441.644 332.731C440.458 330.299 439.155 328.229 437.718 326.705C436.28 325.181 434.636 324.128 432.778 323.902L432.501 326.177C433.646 326.317 434.831 326.985 436.05 328.278C437.269 329.57 438.452 331.415 439.584 333.736C441.847 338.376 443.806 344.711 445.459 351.761C448.761 365.845 450.787 382.537 451.639 393.611L453.925 393.435Z" fill="black"/>
<line x1="455.759" y1="394.623" x2="455.759" y2="401.215" stroke="black" stroke-width="2.29213"/>
<line x1="461.619" y1="394.623" x2="461.619" y2="401.215" stroke="black" stroke-width="2.29213"/>
<line x1="467.478" y1="394.623" x2="467.478" y2="401.215" stroke="black" stroke-width="2.29213"/>
<line x1="473.338" y1="394.623" x2="473.338" y2="401.215" stroke="black" stroke-width="2.29213"/>
<line x1="479.198" y1="394.623" x2="479.198" y2="401.215" stroke="black" stroke-width="2.29213"/>
<line x1="485.057" y1="394.623" x2="485.057" y2="401.215" stroke="black" stroke-width="2.29213"/>
<line x1="490.917" y1="394.623" x2="490.917" y2="401.215" stroke="black" stroke-width="2.29213"/>
<line x1="496.776" y1="394.623" x2="496.776" y2="401.215" stroke="black" stroke-width="2.29213"/>
<line x1="502.636" y1="394.623" x2="502.636" y2="401.215" stroke="black" stroke-width="2.29213"/>
<line x1="508.496" y1="394.623" x2="508.496" y2="401.215" stroke="black" stroke-width="2.29213"/>
<line x1="514.355" y1="394.623" x2="514.355" y2="401.215" stroke="black" stroke-width="2.29213"/>
<line x1="520.214" y1="394.623" x2="520.214" y2="401.215" stroke="black" stroke-width="2.29213"/>
<line x1="526.075" y1="394.623" x2="526.075" y2="401.215" stroke="black" stroke-width="2.29213"/>
<path d="M306.541 526.045H769.466L850.38 586.745H214.887L306.541 526.045Z" fill="#F8C66D" stroke="black" stroke-width="2.47756" stroke-linejoin="bevel"/>
<path d="M775.314 389.949L785.916 379.348V457.28L775.314 446.679V389.949Z" fill="#98BBCE" stroke="black" stroke-width="2.29213" stroke-linejoin="bevel"/>
<path d="M796.803 389.949L786.202 379.348V457.28L796.803 446.679V389.949Z" fill="#98BBCE" stroke="black" stroke-width="2.29213" stroke-linejoin="bevel"/>
<path d="M797.376 389.949L807.977 379.348V457.28L797.376 446.679V389.949Z" fill="#98BBCE" stroke="black" stroke-width="2.29213" stroke-linejoin="bevel"/>
<path d="M818.864 389.949L808.263 379.348V457.28L818.864 446.679V389.949Z" fill="#98BBCE" stroke="black" stroke-width="2.29213" stroke-linejoin="bevel"/>
<path d="M819.438 389.949L830.039 379.348V457.28L819.438 446.679V389.949Z" fill="#98BBCE" stroke="black" stroke-width="2.29213" stroke-linejoin="bevel"/>
<path d="M840.926 389.949L830.325 379.348V457.28L840.926 446.679V389.949Z" fill="#98BBCE" stroke="black" stroke-width="2.29213" stroke-linejoin="bevel"/>
<path d="M862.988 390.616V97.416H854.679V388.897C854.679 389.846 853.91 390.616 852.96 390.616H841.213V399.977H855.539C859.653 399.977 862.988 396.642 862.988 392.528V390.616Z" fill="#98BBCE" stroke="black" stroke-width="2.29213"/>
<path d="M859.415 476.462C859.565 475.847 859.188 475.227 858.573 475.077C857.958 474.927 857.338 475.304 857.188 475.919L859.415 476.462ZM837.774 560.426L836.661 560.155L837.774 561.572V560.426ZM898.364 468.739C898.679 468.19 898.489 467.489 897.94 467.174C897.392 466.859 896.691 467.048 896.376 467.597L898.364 468.739ZM844.396 560.426V561.572L845.39 560.997L844.396 560.426ZM857.188 475.919L836.661 560.155L838.888 560.698L859.415 476.462L857.188 475.919ZM837.774 561.572H844.396V559.28H837.774V561.572ZM845.39 560.997L898.364 468.739L896.376 467.597L843.402 559.856L845.39 560.997Z" fill="black"/>
<path d="M998.894 335.626C1016.5 335.093 1009.79 366.471 1004.23 382.227C993.025 417.378 973.817 443.474 950.898 460.364C879.533 512.957 835.903 468.685 827.486 452.794C819.507 437.729 814.147 443.474 863.502 443.474C912.857 443.474 880.843 358.926 892.181 338.289C903.519 317.651 930.865 347.609 940.202 358.926C949.539 370.244 976.885 336.292 998.894 335.626Z" fill="#98BBCE" stroke="black" stroke-width="2.29213"/>
<path d="M848.73 476.529C823.989 460.432 819.977 442.994 823.32 442.994C836.571 451.674 854.392 464.275 881.325 465.589C916.566 467.308 954.673 446.679 980.173 430.348C937.377 486.017 879.138 496.313 848.73 476.529Z" fill="#98BBCE"/>
<path d="M823.32 442.994V441.847L823.948 442.035L823.32 442.994ZM848.73 476.529L849.355 475.569L849.355 475.569L848.73 476.529ZM980.173 430.348L979.555 429.383L981.081 431.046L980.173 430.348ZM881.325 465.589L881.381 464.444L881.381 464.444L881.325 465.589ZM823.32 444.14C823.382 444.14 823.475 444.111 823.544 444.05C823.593 444.006 823.568 444 823.529 444.122C823.445 444.386 823.399 444.926 823.533 445.794C823.797 447.496 824.691 450.042 826.486 453.152C830.063 459.349 837.116 467.606 849.355 475.569L848.105 477.49C835.602 469.355 828.28 460.845 824.501 454.298C822.618 451.036 821.589 448.216 821.268 446.145C821.11 445.127 821.105 444.179 821.345 443.426C821.468 443.041 821.676 442.644 822.022 442.336C822.387 442.012 822.84 441.847 823.32 441.847V444.14ZM849.355 475.569C879.066 494.899 936.672 485.055 979.264 429.649L981.081 431.046C938.083 486.979 879.209 497.727 848.105 477.49L849.355 475.569ZM980.791 431.313C968.012 439.497 952.045 448.778 934.835 455.799C917.633 462.816 899.121 467.605 881.269 466.734L881.381 464.444C898.77 465.293 916.932 460.626 933.969 453.676C950.998 446.729 966.834 437.53 979.555 429.383L980.791 431.313ZM881.269 466.734C853.985 465.403 835.92 452.617 822.692 443.952L823.948 442.035C837.223 450.73 854.8 463.148 881.381 464.444L881.269 466.734Z" fill="black"/>
<path d="M926.284 557.427L926.219 558.572L926.284 557.427ZM922.903 555.842L923.721 555.039L922.903 555.842ZM995.318 407.727C988.545 432.599 977.787 469.946 967.519 501.149C962.386 516.746 957.368 530.834 953.026 541.067C950.858 546.177 948.841 550.366 947.048 553.309C946.153 554.777 945.287 555.979 944.457 556.837C943.666 557.655 942.727 558.35 941.675 558.409L941.547 556.121C941.694 556.112 942.109 555.967 942.81 555.243C943.471 554.56 944.235 553.519 945.09 552.116C946.797 549.316 948.762 545.249 950.916 540.171C955.22 530.028 960.215 516.013 965.341 500.433C975.592 469.281 986.34 431.976 993.106 407.125L995.318 407.727ZM941.675 558.409C934.346 558.818 929.115 558.736 926.219 558.572L926.349 556.283C929.146 556.442 934.29 556.526 941.547 556.121L941.675 558.409ZM922.085 556.644L828.934 461.743L830.57 460.137L923.721 555.039L922.085 556.644ZM926.219 558.572C924.615 558.481 923.167 557.747 922.085 556.644L923.721 555.039C924.448 555.78 925.375 556.228 926.349 556.283L926.219 558.572Z" fill="black"/>
<path d="M958.111 453.842L986.189 557.561H980.841L942.352 467.308" stroke="black" stroke-width="2.29213" stroke-linejoin="bevel"/>
<path d="M19.4834 402.84L35.6631 403.649V422.795L19.4834 425.761V402.84Z" fill="#F6AE2D" stroke="black" stroke-width="2.29213"/>
<line x1="551.875" y1="47.5605" x2="551.875" y2="181.448" stroke="black" stroke-width="2.29213"/>
<path d="M628.66 221.562H575.441L551.645 180.877C603.217 182.342 628.515 208.611 628.66 221.562Z" fill="#E0E0E0" stroke="black" stroke-width="2.29213" stroke-linejoin="bevel"/>
<path d="M472.223 221.562H525.441L549.238 180.877C497.666 182.342 472.368 208.611 472.223 221.562Z" fill="#E0E0E0" stroke="black" stroke-width="2.29213" stroke-linejoin="bevel"/>
<path d="M611.01 221.562H572.904L550.842 180.877C598.653 182.342 610.876 208.611 611.01 221.562Z" fill="#E0E0E0" stroke="black" stroke-width="2.29213" stroke-linejoin="bevel"/>
<path d="M490.673 221.562H528.78L550.842 180.877C503.03 182.342 490.808 208.611 490.673 221.562Z" fill="#E0E0E0" stroke="black" stroke-width="2.29213" stroke-linejoin="bevel"/>
<path d="M583.734 221.562H521.159C521.159 201.76 532.382 184.368 550.406 181.225C572.172 183.713 580.9 209.513 583.734 221.562Z" fill="#E0E0E0" stroke="black" stroke-width="2.29213"/>
<rect x="0.222656" width="1100" height="619" fill="black" fill-opacity="0.2"/>
</g>
<defs>
<clipPath id="clip0_6563_155567">
<rect width="1100" height="618" fill="white"/>
</clipPath>
<clipPath id="clip1_6563_155567">
<rect width="147.842" height="148.988" fill="white" transform="translate(174.202 244.113)"/>
</clipPath>
</defs>
</svg>
