<svg width="1100" height="618" fill="none" xmlns="http://www.w3.org/2000/svg">
<g clip-path="url(#clip0_6563_155930)">
<rect width="1100" height="618" fill="white"/>
<path d="M187.333 126.64L-30.6346 -54.4379H1226.36L914.15 126.64H187.333Z" fill="#98BBCE" stroke="black" stroke-width="2.29213"/>
<path d="M186.726 490.832L-26.0166 647.27H1131.36L913.536 490.832H186.726Z" fill="#F8C66D" stroke="black" stroke-width="2.29213"/>
<path d="M1100.22 18.3379L912.841 126.068V491.663L1100.22 624.893V18.3379Z" fill="#53AF78" stroke="black" stroke-width="2.29213"/>
<path d="M0 -29.2227L187.382 126.069L186.809 490.804L0 628.046V-29.2227Z" fill="#53AF78" stroke="black" stroke-width="2.29213"/>
<rect x="186.809" y="126.068" width="726.032" height="365.022" fill="#53AF78" stroke="black" stroke-width="2.29213"/>
<path d="M998.796 168.206L1044.35 148.988V413.37L998.796 390.21V168.206Z" fill="#AADAF4" stroke="black" stroke-width="2.29213"/>
<path d="M969.571 166.18L998.796 169.029V391.242L969.571 391.954V166.18Z" fill="#F8C66D" stroke="black" stroke-width="2.29213" stroke-linejoin="bevel"/>
<path d="M969.284 166.179L997.936 168.471L1044.35 148.702L1044.35 124.424L969.284 166.179Z" fill="#F8C66D" stroke="black" stroke-width="2.29213" stroke-linejoin="bevel"/>
<path d="M970.145 391.953L998.796 390.807L1044.35 413.155L1044.35 435.217L970.145 391.953Z" fill="#F8C66D" stroke="black" stroke-width="2.29213" stroke-linejoin="bevel"/>
<path fill-rule="evenodd" clip-rule="evenodd" d="M417.992 398.406C420.797 400.954 422.396 404.566 422.396 408.355C422.396 409.153 422.465 409.935 422.599 410.694V419.149C418.773 419.073 413.528 417.874 409.12 413.467C407.784 412.131 405.831 409.715 403.43 406.744C393.357 394.284 375.39 372.058 361.946 378.78C346.57 386.468 361.382 430.011 402.123 451.294C403.629 452.081 405.318 452.465 407.017 452.458C408.675 452.451 410.448 452.439 412.221 452.428C416.075 452.402 419.929 452.376 422.599 452.401V452.465H652.919L652.919 452.464C655.001 452.354 660.474 452.391 665.946 452.428C667.72 452.439 669.493 452.451 671.151 452.458C672.85 452.465 674.538 452.081 676.044 451.294C716.786 430.011 731.598 386.468 716.222 378.78C702.778 372.058 684.811 394.284 674.738 406.744L674.738 406.745L674.735 406.748C672.334 409.718 670.383 412.132 669.048 413.467C665.293 417.222 661.687 418.527 658.089 418.978C668.519 414.139 675.752 403.575 675.752 391.321C675.752 370.109 654.619 355.387 634.721 362.736L627.322 365.469C620.784 367.884 613.684 368.347 606.887 366.802L424.262 325.284C415.331 323.253 405.959 325.212 398.589 330.65L398.266 330.889C390.425 336.674 385.797 345.839 385.797 355.584C385.797 364.236 389.45 372.487 395.855 378.304L417.992 398.406Z" fill="#F8C66D"/>
<path d="M417.992 398.406L417.221 399.255L417.221 399.255L417.992 398.406ZM422.599 410.694H423.745V410.595L423.728 410.496L422.599 410.694ZM422.599 419.149L422.576 420.294L423.745 420.317V419.149H422.599ZM409.12 413.467L409.931 412.657L409.931 412.657L409.12 413.467ZM403.43 406.744L402.538 407.465L402.538 407.465L403.43 406.744ZM361.946 378.78L362.459 379.805L362.459 379.805L361.946 378.78ZM402.123 451.294L401.593 452.31L401.593 452.31L402.123 451.294ZM407.017 452.458L407.012 451.312L407.012 451.312L407.017 452.458ZM412.221 452.428L412.229 453.574L412.229 453.574L412.221 452.428ZM422.599 452.401H423.745V451.266L422.61 451.255L422.599 452.401ZM422.599 452.465H421.453V453.611H422.599V452.465ZM652.919 452.465V453.611H654.376L654.033 452.195L652.919 452.465ZM652.919 452.464L652.859 451.32L651.48 451.392L651.805 452.734L652.919 452.464ZM665.946 452.428L665.939 453.574L665.939 453.574L665.946 452.428ZM671.151 452.458L671.146 453.604L671.146 453.604L671.151 452.458ZM676.044 451.294L675.514 450.278L675.514 450.278L676.044 451.294ZM716.222 378.78L716.734 377.755L716.734 377.755L716.222 378.78ZM674.738 406.744L673.847 406.024L673.831 406.043L673.816 406.063L674.738 406.744ZM674.738 406.745L675.633 407.461L675.646 407.443L675.66 407.426L674.738 406.745ZM674.735 406.748L675.626 407.469L675.63 407.464L674.735 406.748ZM669.048 413.467L668.237 412.657L668.237 412.657L669.048 413.467ZM658.089 418.978L657.607 417.939L658.232 420.115L658.089 418.978ZM634.721 362.736L635.119 363.811L635.119 363.811L634.721 362.736ZM627.322 365.469L627.719 366.544L627.719 366.544L627.322 365.469ZM606.887 366.802L607.141 365.685L607.141 365.685L606.887 366.802ZM424.262 325.284L424.516 324.166L424.516 324.166L424.262 325.284ZM398.589 330.65L399.27 331.572L399.27 331.572L398.589 330.65ZM398.266 330.889L397.586 329.966L397.586 329.966L398.266 330.889ZM395.855 378.304L396.626 377.455L396.626 377.455L395.855 378.304ZM423.542 408.355C423.542 404.243 421.806 400.322 418.762 397.558L417.221 399.255C419.787 401.585 421.25 404.889 421.25 408.355H423.542ZM423.728 410.496C423.606 409.802 423.542 409.086 423.542 408.355H421.25C421.25 409.22 421.325 410.068 421.47 410.893L423.728 410.496ZM423.745 419.149V410.694H421.453V419.149H423.745ZM408.31 414.277C412.982 418.949 418.542 420.215 422.576 420.294L422.621 418.003C419.003 417.932 414.074 416.8 409.931 412.657L408.31 414.277ZM402.538 407.465C404.919 410.41 406.92 412.887 408.31 414.277L409.931 412.657C408.649 411.375 406.744 409.021 404.321 406.024L402.538 407.465ZM362.459 379.805C365.465 378.302 368.77 378.381 372.298 379.641C375.847 380.908 379.546 383.349 383.213 386.445C390.546 392.636 397.488 401.218 402.538 407.465L404.321 406.024C399.298 399.811 392.221 391.05 384.691 384.693C380.926 381.515 376.984 378.881 373.069 377.482C369.132 376.076 365.149 375.897 361.434 377.755L362.459 379.805ZM402.654 450.278C382.509 439.754 368.795 423.734 362.026 409.448C358.638 402.298 357.022 395.65 357.153 390.389C357.285 385.122 359.141 381.464 362.459 379.805L361.434 377.755C357.063 379.94 355.005 384.608 354.862 390.332C354.719 396.063 356.469 403.073 359.955 410.43C366.933 425.157 380.996 441.55 401.593 452.31L402.654 450.278ZM407.012 451.312C405.488 451.318 403.984 450.973 402.654 450.278L401.593 452.31C403.274 453.188 405.148 453.612 407.022 453.604L407.012 451.312ZM412.214 451.281C410.44 451.293 408.668 451.305 407.012 451.312L407.022 453.604C408.681 453.597 410.456 453.585 412.229 453.574L412.214 451.281ZM422.61 451.255C419.928 451.23 416.063 451.256 412.214 451.281L412.229 453.574C416.087 453.548 419.93 453.522 422.588 453.547L422.61 451.255ZM423.745 452.465V452.401H421.453V452.465H423.745ZM652.919 451.319H422.599V453.611H652.919V451.319ZM651.805 452.734L651.806 452.735L654.033 452.195L654.033 452.194L651.805 452.734ZM665.954 451.282C660.507 451.245 654.985 451.208 652.859 451.32L652.979 453.609C655.017 453.501 660.44 453.537 665.939 453.574L665.954 451.282ZM671.155 451.312C669.499 451.305 667.727 451.293 665.954 451.282L665.939 453.574C667.712 453.585 669.486 453.597 671.146 453.604L671.155 451.312ZM675.514 450.278C674.183 450.973 672.68 451.318 671.155 451.312L671.146 453.604C673.019 453.612 674.893 453.188 676.575 452.31L675.514 450.278ZM715.709 379.805C719.026 381.464 720.883 385.122 721.014 390.389C721.145 395.65 719.529 402.298 716.141 409.448C709.372 423.734 695.659 439.754 675.514 450.278L676.575 452.31C697.171 441.55 711.235 425.157 718.213 410.43C721.698 403.073 723.449 396.063 723.306 390.332C723.163 384.608 721.105 379.94 716.734 377.755L715.709 379.805ZM675.629 407.465C680.679 401.218 687.622 392.636 694.955 386.445C698.621 383.349 702.321 380.908 705.87 379.641C709.398 378.381 712.703 378.302 715.709 379.805L716.734 377.755C713.019 375.897 709.036 376.076 705.099 377.482C701.183 378.881 697.241 381.515 693.476 384.693C685.947 391.05 678.869 399.811 673.847 406.024L675.629 407.465ZM675.66 407.426L675.66 407.425L673.816 406.063L673.816 406.064L675.66 407.426ZM675.63 407.464L675.633 407.461L673.843 406.029L673.84 406.032L675.63 407.464ZM669.858 414.277C671.247 412.888 673.247 410.412 675.626 407.469L673.843 406.028C671.422 409.023 669.518 411.376 668.237 412.657L669.858 414.277ZM658.232 420.115C662.054 419.636 665.904 418.232 669.858 414.277L668.237 412.657C664.682 416.212 661.321 417.418 657.947 417.841L658.232 420.115ZM674.606 391.321C674.606 403.112 667.647 413.281 657.607 417.939L658.572 420.018C669.391 414.998 676.898 404.038 676.898 391.321H674.606ZM635.119 363.811C654.268 356.738 674.606 370.907 674.606 391.321H676.898C676.898 369.311 654.971 354.035 634.324 361.661L635.119 363.811ZM627.719 366.544L635.119 363.811L634.324 361.661L626.925 364.394L627.719 366.544ZM606.633 367.92C613.647 369.514 620.972 369.036 627.719 366.544L626.925 364.394C620.595 366.732 613.721 367.181 607.141 365.685L606.633 367.92ZM424.008 326.401L606.633 367.92L607.141 365.685L424.516 324.166L424.008 326.401ZM399.27 331.572C406.371 326.333 415.402 324.445 424.008 326.401L424.516 324.166C415.26 322.062 405.547 324.092 397.909 329.728L399.27 331.572ZM398.947 331.811L399.27 331.572L397.909 329.728L397.586 329.966L398.947 331.811ZM386.944 355.584C386.944 346.203 391.398 337.38 398.947 331.811L397.586 329.966C389.452 335.968 384.651 345.476 384.651 355.584H386.944ZM396.626 377.455C390.459 371.856 386.944 363.913 386.944 355.584H384.651C384.651 364.559 388.44 373.118 395.085 379.152L396.626 377.455ZM418.762 397.558L396.626 377.455L395.085 379.152L417.221 399.255L418.762 397.558Z" fill="black"/>
<line x1="451.494" y1="452.467" x2="451.494" y2="499.641" stroke="black" stroke-width="2.29213"/>
<line x1="466.772" y1="452.467" x2="466.772" y2="499.641" stroke="black" stroke-width="2.29213"/>
<path d="M442.36 498.246H474.397" stroke="black" stroke-width="2.29213"/>
<line x1="612.376" y1="452.467" x2="612.376" y2="499.641" stroke="black" stroke-width="2.29213"/>
<line x1="627.654" y1="452.467" x2="627.654" y2="499.641" stroke="black" stroke-width="2.29213"/>
<path d="M603.242 498.246H635.279" stroke="black" stroke-width="2.29213"/>
<path d="M422.472 418.93H658.561" stroke="black" stroke-width="2.29213"/>
<path d="M358.385 399.177C358.072 398.626 357.373 398.433 356.822 398.745C356.272 399.058 356.079 399.757 356.391 400.308L358.385 399.177ZM539.123 442.512C539.756 442.525 540.279 442.023 540.293 441.39C540.306 440.757 539.803 440.234 539.17 440.221L539.123 442.512ZM356.391 400.308C365.16 415.77 390.405 442.512 427.072 442.512V440.22C391.54 440.22 366.927 414.239 358.385 399.177L356.391 400.308ZM427.072 442.512C465.366 442.512 516.814 442.05 539.123 442.512L539.17 440.221C516.831 439.758 465.316 440.22 427.072 440.22V442.512Z" fill="black"/>
<path d="M719.908 399.177C720.221 398.626 720.92 398.433 721.471 398.745C722.021 399.058 722.214 399.757 721.902 400.308L719.908 399.177ZM539.17 442.512C538.537 442.525 538.014 442.023 538 441.39C537.987 440.757 538.49 440.234 539.123 440.221L539.17 442.512ZM721.902 400.308C713.133 415.77 687.888 442.512 651.221 442.512V440.22C686.753 440.22 711.366 414.239 719.908 399.177L721.902 400.308ZM651.221 442.512C612.927 442.512 561.479 442.05 539.17 442.512L539.123 440.221C561.462 439.758 612.977 440.22 651.221 440.22V442.512Z" fill="black"/>
<path d="M53.709 112.314L139.976 170.353V524.611L53.709 586.785V112.314Z" fill="#98BBCE" stroke="black" stroke-width="2.29213"/>
<path d="M60.1689 125.781L133.231 174.776V529.196L60.1689 582.202V125.781Z" fill="#E0E0E0" stroke="black" stroke-width="2.29213"/>
<rect x="258.168" y="401.146" width="59.0223" height="106.708" fill="#F8C66D" stroke="black" stroke-width="2.29213"/>
<rect x="211.753" y="401.146" width="46.4156" height="106.708" fill="#F8C66D" stroke="black" stroke-width="2.29213"/>
<rect x="211.753" y="401.146" width="105.438" height="19.4831" stroke="black" stroke-width="2.29213"/>
<line x1="282.809" y1="411.461" x2="293.123" y2="411.461" stroke="black" stroke-width="2.29213"/>
<line x1="230.09" y1="410.887" x2="240.404" y2="410.887" stroke="black" stroke-width="2.29213"/>
<path d="M447.423 323C444.2 323 440.465 326.906 439 328.86C451.012 330.324 457.433 375.126 459.142 397.343H536.416C536.416 391.118 531.655 359.622 528.725 341.677C526.381 327.321 514.808 323.244 509.315 323H447.423Z" fill="#CBCBCB"/>
<path d="M439 328.86L438.083 328.172L438.861 329.997L439 328.86ZM509.315 323L509.366 321.855L509.315 321.854V323ZM528.725 341.677L529.856 341.493L529.856 341.493L528.725 341.677ZM536.416 397.343V398.489L537.562 397.343H536.416ZM459.142 397.343L458 397.431L459.142 398.489V397.343ZM439.917 329.547C440.602 328.633 441.838 327.242 443.27 326.091C444.746 324.906 446.222 324.146 447.423 324.146V321.854C445.402 321.854 443.399 323.047 441.835 324.304C440.228 325.595 438.863 327.133 438.083 328.172L439.917 329.547ZM447.423 324.146H509.315V321.854H447.423V324.146ZM509.264 324.145C514.409 324.374 525.365 328.212 527.594 341.862L529.856 341.493C527.397 326.431 515.208 322.115 509.366 321.855L509.264 324.145ZM527.594 341.862C529.058 350.829 530.979 363.181 532.534 374.067C534.097 385.007 535.269 394.334 535.269 397.343H537.562C537.562 394.127 536.353 384.594 534.803 373.743C533.246 362.839 531.322 350.471 529.856 341.493L527.594 341.862ZM536.416 396.197H459.142V398.489H536.416V396.197ZM460.285 397.256C459.428 386.112 457.389 369.295 454.051 355.058C452.383 347.947 450.378 341.418 448.005 336.552C446.818 334.119 445.516 332.05 444.078 330.525C442.64 329.001 440.997 327.949 439.139 327.722L438.861 329.997C440.006 330.137 441.191 330.805 442.41 332.098C443.63 333.391 444.813 335.235 445.944 337.556C448.207 342.196 450.166 348.531 451.819 355.581C455.122 369.665 457.148 386.357 458 397.431L460.285 397.256Z" fill="black"/>
<line x1="462.12" y1="398.443" x2="462.12" y2="405.035" stroke="black" stroke-width="2.29213"/>
<line x1="467.979" y1="398.443" x2="467.979" y2="405.035" stroke="black" stroke-width="2.29213"/>
<line x1="473.838" y1="398.443" x2="473.838" y2="405.035" stroke="black" stroke-width="2.29213"/>
<line x1="479.699" y1="398.443" x2="479.699" y2="405.035" stroke="black" stroke-width="2.29213"/>
<line x1="485.558" y1="398.443" x2="485.558" y2="405.035" stroke="black" stroke-width="2.29213"/>
<line x1="491.418" y1="398.443" x2="491.418" y2="405.035" stroke="black" stroke-width="2.29213"/>
<line x1="497.277" y1="398.443" x2="497.277" y2="405.035" stroke="black" stroke-width="2.29213"/>
<line x1="503.136" y1="398.443" x2="503.136" y2="405.035" stroke="black" stroke-width="2.29213"/>
<line x1="508.997" y1="398.443" x2="508.997" y2="405.035" stroke="black" stroke-width="2.29213"/>
<line x1="514.856" y1="398.443" x2="514.856" y2="405.035" stroke="black" stroke-width="2.29213"/>
<line x1="520.715" y1="398.443" x2="520.715" y2="405.035" stroke="black" stroke-width="2.29213"/>
<line x1="526.575" y1="398.443" x2="526.575" y2="405.035" stroke="black" stroke-width="2.29213"/>
<line x1="532.435" y1="398.443" x2="532.435" y2="405.035" stroke="black" stroke-width="2.29213"/>
<path d="M306.541 526.045H769.466L850.38 586.745H214.887L306.541 526.045Z" fill="#53AF78" stroke="black" stroke-width="2.47756" stroke-linejoin="bevel"/>
<path d="M776.146 389.949L786.748 379.348V457.28L776.146 446.679V389.949Z" fill="#F8C66D" stroke="black" stroke-width="2.29213" stroke-linejoin="bevel"/>
<path d="M797.635 389.949L787.034 379.348V457.28L797.635 446.679V389.949Z" fill="#F8C66D" stroke="black" stroke-width="2.29213" stroke-linejoin="bevel"/>
<path d="M798.208 389.949L808.809 379.348V457.28L798.208 446.679V389.949Z" fill="#F8C66D" stroke="black" stroke-width="2.29213" stroke-linejoin="bevel"/>
<path d="M819.696 389.949L809.095 379.348V457.28L819.696 446.679V389.949Z" fill="#F8C66D" stroke="black" stroke-width="2.29213" stroke-linejoin="bevel"/>
<path d="M820.27 389.949L830.871 379.348V457.28L820.27 446.679V389.949Z" fill="#F8C66D" stroke="black" stroke-width="2.29213" stroke-linejoin="bevel"/>
<path d="M841.758 389.949L831.157 379.348V457.28L841.758 446.679V389.949Z" fill="#F8C66D" stroke="black" stroke-width="2.29213" stroke-linejoin="bevel"/>
<path d="M863.82 390.616V97.416H855.511V388.897C855.511 389.846 854.742 390.616 853.792 390.616H842.045V399.977H856.371C860.485 399.977 863.82 396.642 863.82 392.528V390.616Z" fill="#F8C66D" stroke="black" stroke-width="2.29213"/>
<path d="M859.415 476.462C859.565 475.847 859.188 475.227 858.573 475.077C857.958 474.927 857.338 475.304 857.188 475.919L859.415 476.462ZM837.774 560.426L836.661 560.155L837.774 561.572V560.426ZM898.364 468.739C898.679 468.19 898.489 467.489 897.94 467.174C897.392 466.859 896.691 467.048 896.376 467.597L898.364 468.739ZM844.396 560.426V561.572L845.39 560.997L844.396 560.426ZM857.188 475.919L836.661 560.155L838.888 560.698L859.415 476.462L857.188 475.919ZM837.774 561.572H844.396V559.28H837.774V561.572ZM845.39 560.997L898.364 468.739L896.376 467.597L843.402 559.856L845.39 560.997Z" fill="black"/>
<path d="M998.894 335.626C1016.5 335.093 1009.79 366.471 1004.23 382.227C993.025 417.378 973.817 443.474 950.898 460.364C879.533 512.957 835.903 468.685 827.486 452.794C819.507 437.729 814.147 443.474 863.502 443.474C912.857 443.474 880.843 358.926 892.181 338.289C903.519 317.651 930.865 347.609 940.202 358.926C949.539 370.244 976.885 336.292 998.894 335.626Z" fill="#CBCBCB" stroke="black" stroke-width="2.29213"/>
<path d="M848.73 476.529C823.989 460.432 819.977 442.994 823.32 442.994C836.571 451.674 854.392 464.275 881.325 465.589C916.566 467.308 954.673 446.679 980.173 430.348C937.377 486.017 879.138 496.313 848.73 476.529Z" fill="#E0E0E0"/>
<path d="M823.32 442.994V441.847L823.948 442.035L823.32 442.994ZM848.73 476.529L849.355 475.569L849.355 475.569L848.73 476.529ZM980.173 430.348L979.555 429.383L981.081 431.046L980.173 430.348ZM881.325 465.589L881.381 464.444L881.381 464.444L881.325 465.589ZM823.32 444.14C823.382 444.14 823.475 444.111 823.544 444.05C823.593 444.006 823.568 444 823.529 444.122C823.445 444.386 823.399 444.926 823.533 445.794C823.797 447.496 824.691 450.042 826.486 453.152C830.063 459.349 837.116 467.606 849.355 475.569L848.105 477.49C835.602 469.355 828.28 460.845 824.501 454.298C822.618 451.036 821.589 448.216 821.268 446.145C821.11 445.127 821.105 444.179 821.345 443.426C821.468 443.041 821.676 442.644 822.022 442.336C822.387 442.012 822.84 441.847 823.32 441.847V444.14ZM849.355 475.569C879.066 494.899 936.672 485.055 979.264 429.649L981.081 431.046C938.083 486.979 879.209 497.727 848.105 477.49L849.355 475.569ZM980.791 431.313C968.012 439.497 952.045 448.778 934.835 455.799C917.633 462.816 899.121 467.605 881.269 466.734L881.381 464.444C898.77 465.293 916.932 460.626 933.969 453.676C950.998 446.729 966.834 437.53 979.555 429.383L980.791 431.313ZM881.269 466.734C853.985 465.403 835.92 452.617 822.692 443.952L823.948 442.035C837.223 450.73 854.8 463.148 881.381 464.444L881.269 466.734Z" fill="black"/>
<path d="M926.284 557.427L926.219 558.572L926.284 557.427ZM922.903 555.842L923.721 555.039L922.903 555.842ZM995.318 407.727C988.545 432.599 977.787 469.946 967.519 501.149C962.386 516.746 957.368 530.834 953.026 541.067C950.858 546.177 948.841 550.366 947.048 553.309C946.153 554.777 945.287 555.979 944.457 556.837C943.666 557.655 942.727 558.35 941.675 558.409L941.547 556.121C941.694 556.112 942.109 555.967 942.81 555.243C943.471 554.56 944.235 553.519 945.09 552.116C946.797 549.316 948.762 545.249 950.916 540.171C955.22 530.028 960.215 516.013 965.341 500.433C975.592 469.281 986.34 431.976 993.106 407.125L995.318 407.727ZM941.675 558.409C934.346 558.818 929.115 558.736 926.219 558.572L926.349 556.283C929.146 556.442 934.29 556.526 941.547 556.121L941.675 558.409ZM922.085 556.644L828.934 461.743L830.57 460.137L923.721 555.039L922.085 556.644ZM926.219 558.572C924.615 558.481 923.167 557.747 922.085 556.644L923.721 555.039C924.448 555.78 925.375 556.228 926.349 556.283L926.219 558.572Z" fill="black"/>
<path d="M958.111 453.842L986.189 557.561H980.841L942.352 467.308" stroke="black" stroke-width="2.29213" stroke-linejoin="bevel"/>
<path d="M19.4834 402.84L35.6631 403.649V422.795L19.4834 425.761V402.84Z" fill="#F6AE2D" stroke="black" stroke-width="2.29213"/>
<line x1="546.157" y1="47.5605" x2="546.157" y2="181.157" stroke="black" stroke-width="2.29213"/>
<path d="M622.942 221.269H569.724L545.927 180.584C597.499 182.049 622.797 208.318 622.942 221.269Z" fill="#F8C66D" stroke="black" stroke-width="2.29213" stroke-linejoin="bevel"/>
<path d="M466.505 221.269H519.724L543.521 180.584C491.948 182.049 466.65 208.318 466.505 221.269Z" fill="#F8C66D" stroke="black" stroke-width="2.29213" stroke-linejoin="bevel"/>
<path d="M605.292 221.269H567.186L545.124 180.584C592.936 182.049 605.158 208.318 605.292 221.269Z" fill="#F8C66D" stroke="black" stroke-width="2.29213" stroke-linejoin="bevel"/>
<path d="M484.956 221.269H523.062L545.124 180.584C497.312 182.049 485.09 208.318 484.956 221.269Z" fill="#F8C66D" stroke="black" stroke-width="2.29213" stroke-linejoin="bevel"/>
<path d="M578.017 221.269H515.441C515.441 201.467 526.664 184.075 544.688 180.932C566.454 183.42 575.183 209.22 578.017 221.269Z" fill="#F8C66D" stroke="black" stroke-width="2.29213"/>
<path d="M471.09 222.908H619.505L712.909 581.053H388L471.09 222.908Z" fill="url(#paint0_linear_6563_155930)" fill-opacity="0.5"/>
<g clip-path="url(#clip1_6563_155930)">
<path d="M254.198 368.44C254.322 363.823 255.855 358.493 258.041 352.739C260.232 346.975 263.128 340.662 266.043 334.088C271.901 320.876 277.854 306.556 278.84 292.745L281.127 292.908C280.107 307.175 273.979 321.843 268.138 335.017C265.203 341.636 262.345 347.865 260.184 353.553C258.019 359.252 256.603 364.285 256.489 368.502L254.198 368.44Z" fill="black"/>
<path d="M289.975 275.922L290.584 291.165C284.246 299.464 283.88 289.119 284.489 282.908L289.975 275.922Z" fill="#BF4A39" stroke="black" stroke-width="2.29213"/>
<path d="M274.556 275.463L279.06 289.847C274.878 299.456 271.869 289.681 270.888 283.592L274.556 275.463Z" fill="#BF4A39" stroke="black" stroke-width="2.29213"/>
<path d="M280.849 305.116C295.731 305.993 295.031 287.831 292.821 278.641C288.681 284.484 289.049 289.231 285.734 290.144C283.966 287.223 287.023 275.537 285.366 271.338C277.262 276.815 276.428 292.518 275.507 288.501C274.771 285.287 271.122 278.154 268.421 276.815C267.009 284.667 265.967 304.24 280.849 305.116Z" fill="#BF4A39" stroke="black" stroke-width="2.29213"/>
<mask id="path-69-inside-1_6563_155930" fill="white">
<path d="M273.394 338.383H233.281V392.821C233.281 397.885 237.386 401.989 242.45 401.989H264.225C269.289 401.989 273.394 397.885 273.394 392.821V338.383Z"/>
</mask>
<path d="M273.394 338.383H233.281V392.821C233.281 397.885 237.386 401.989 242.45 401.989H264.225C269.289 401.989 273.394 397.885 273.394 392.821V338.383Z" fill="#98BBCE"/>
<path d="M273.394 338.383V336.091H275.686V338.383H273.394ZM233.281 338.383H230.989V336.091H233.281V338.383ZM273.394 340.675H233.281V336.091H273.394V340.675ZM235.573 338.383V392.821H230.989V338.383H235.573ZM242.45 399.697H264.225V404.282H242.45V399.697ZM271.101 392.821V338.383H275.686V392.821H271.101ZM264.225 399.697C268.023 399.697 271.101 396.619 271.101 392.821H275.686C275.686 399.15 270.555 404.282 264.225 404.282V399.697ZM235.573 392.821C235.573 396.619 238.652 399.697 242.45 399.697V404.282C236.12 404.282 230.989 399.15 230.989 392.821H235.573Z" fill="black" mask="url(#path-69-inside-1_6563_155930)"/>
</g>
</g>
<defs>
<linearGradient id="paint0_linear_6563_155930" x1="550.455" y1="222.908" x2="550.455" y2="581.053" gradientUnits="userSpaceOnUse">
<stop stop-color="#F8C66D"/>
<stop offset="1" stop-color="#F8C66D" stop-opacity="0"/>
</linearGradient>
<clipPath id="clip0_6563_155930">
<rect width="1100" height="618" fill="white"/>
</clipPath>
<clipPath id="clip1_6563_155930">
<rect width="147.842" height="148.988" fill="white" transform="matrix(-1 0 0 1 331.843 253)"/>
</clipPath>
</defs>
</svg>
