<svg width="1100" height="618" fill="none" xmlns="http://www.w3.org/2000/svg">
<g clip-path="url(#clip0_6563_156351)">
<rect width="1100" height="618" fill="white"/>
<path d="M187.333 126.64L-30.6346 -54.4379H1226.36L914.15 126.64H187.333Z" fill="#98BBCE" stroke="black" stroke-width="2.29213"/>
<path d="M186.726 490.832L-26.0166 647.27H1131.36L913.536 490.832H186.726Z" fill="#F8C66D" stroke="black" stroke-width="2.29213"/>
<path d="M1100.22 18.3379L912.841 126.068V491.663L1100.22 624.893V18.3379Z" fill="#E0E0E0" stroke="black" stroke-width="2.29213"/>
<path d="M0 -29.2227L187.382 126.069L186.809 490.804L0 628.046V-29.2227Z" fill="#E0E0E0" stroke="black" stroke-width="2.29213"/>
<rect x="186.809" y="126.068" width="726.032" height="365.022" fill="#E0E0E0" stroke="black" stroke-width="2.29213"/>
<path d="M998.796 168.206L1044.35 148.988V413.37L998.796 390.21V168.206Z" fill="#AADAF4" stroke="black" stroke-width="2.29213"/>
<path d="M969.571 166.18L998.796 169.029V391.242L969.571 391.954V166.18Z" fill="#F8C66D" stroke="black" stroke-width="2.29213" stroke-linejoin="bevel"/>
<path d="M969.284 166.179L997.936 168.471L1044.35 148.702L1044.35 124.424L969.284 166.179Z" fill="#F8C66D" stroke="black" stroke-width="2.29213" stroke-linejoin="bevel"/>
<path d="M970.145 391.953L998.796 390.807L1044.35 413.155L1044.35 435.217L970.145 391.953Z" fill="#F8C66D" stroke="black" stroke-width="2.29213" stroke-linejoin="bevel"/>
<path fill-rule="evenodd" clip-rule="evenodd" d="M458.988 400.065C458.988 360.505 491.058 328.436 530.617 328.436H577.606C617.165 328.436 649.235 360.505 649.235 400.065V419.563C654.098 419.582 659.06 418.762 659.06 413.471C659.06 411.707 658.981 409.74 658.898 407.671C658.405 395.361 657.767 379.438 672.729 381.155C691.133 382.549 690.812 437.131 665.861 451.147C664.5 451.912 662.939 452.211 661.378 452.211H642.932V452.211H463.901V452.211H445.455C443.894 452.211 442.333 451.912 440.972 451.147C416.021 437.131 415.7 382.549 434.104 381.155C449.067 379.438 448.428 395.361 447.935 407.671C447.852 409.74 447.773 411.707 447.773 413.471C447.773 419.269 453.731 419.718 458.988 419.567V400.065Z" fill="#98BBCE"/>
<path d="M649.235 419.563H648.089V420.705L649.23 420.709L649.235 419.563ZM658.898 407.671L660.043 407.625L660.043 407.625L658.898 407.671ZM672.729 381.155L672.598 382.293L672.62 382.296L672.643 382.298L672.729 381.155ZM665.861 451.147L666.422 452.147L666.422 452.147L665.861 451.147ZM642.932 452.211H641.785V453.357H642.932V452.211ZM642.932 452.211H644.078V451.064H642.932V452.211ZM463.901 452.211V451.064H462.755V452.211H463.901ZM463.901 452.211V453.357H465.048V452.211H463.901ZM440.972 451.147L440.411 452.147L440.411 452.147L440.972 451.147ZM434.104 381.155L434.191 382.298L434.213 382.296L434.235 382.293L434.104 381.155ZM447.935 407.671L446.79 407.625L446.79 407.625L447.935 407.671ZM458.988 419.567L459.021 420.713L460.134 420.681V419.567H458.988ZM530.617 327.289C490.425 327.289 457.842 359.872 457.842 400.065H460.134C460.134 361.138 491.691 329.582 530.617 329.582V327.289ZM577.606 327.289H530.617V329.582H577.606V327.289ZM650.381 400.065C650.381 359.872 617.798 327.289 577.606 327.289V329.582C616.532 329.582 648.089 361.138 648.089 400.065H650.381ZM650.381 419.563V400.065H648.089V419.563H650.381ZM657.914 413.471C657.914 414.608 657.65 415.423 657.252 416.027C656.852 416.633 656.263 417.107 655.486 417.47C653.885 418.218 651.651 418.426 649.239 418.417L649.23 420.709C651.682 420.719 654.361 420.526 656.456 419.547C657.528 419.046 658.483 418.323 659.165 417.289C659.85 416.251 660.206 414.979 660.206 413.471H657.914ZM657.753 407.717C657.836 409.792 657.914 411.734 657.914 413.471H660.206C660.206 411.679 660.126 409.688 660.043 407.625L657.753 407.717ZM672.86 380.016C668.917 379.564 665.847 380.26 663.523 381.908C661.213 383.545 659.793 386.015 658.923 388.813C657.203 394.346 657.509 401.626 657.753 407.717L660.043 407.625C659.794 401.406 659.534 394.569 661.112 389.493C661.891 386.986 663.086 385.027 664.849 383.778C666.598 382.538 669.06 381.887 672.598 382.293L672.86 380.016ZM666.422 452.147C672.936 448.488 677.774 442.223 681.091 434.971C684.409 427.713 686.241 419.39 686.697 411.484C687.153 403.588 686.241 396.021 683.996 390.29C681.764 384.597 678.07 380.41 672.816 380.012L672.643 382.298C676.59 382.597 679.757 385.756 681.862 391.127C683.952 396.46 684.852 403.676 684.409 411.352C683.966 419.018 682.19 427.056 679.006 434.018C675.82 440.985 671.261 446.799 665.3 450.148L666.422 452.147ZM661.378 453.357C663.078 453.357 664.846 453.032 666.422 452.147L665.3 450.148C664.154 450.792 662.8 451.065 661.378 451.065V453.357ZM642.932 453.357H661.378V451.065H642.932V453.357ZM641.785 452.211V452.211H644.078V452.211H641.785ZM463.901 453.357H642.932V451.064H463.901V453.357ZM462.755 452.211V452.211H465.048V452.211H462.755ZM463.901 451.065H445.455V453.357H463.901V451.065ZM445.455 451.065C444.033 451.065 442.679 450.792 441.533 450.148L440.411 452.147C441.987 453.032 443.755 453.357 445.455 453.357V451.065ZM441.533 450.148C435.572 446.799 431.013 440.985 427.827 434.018C424.643 427.056 422.867 419.018 422.424 411.352C421.981 403.676 422.881 396.46 424.971 391.127C427.076 385.756 430.243 382.597 434.191 382.298L434.017 380.012C428.763 380.41 425.069 384.597 422.837 390.29C420.592 396.021 419.68 403.588 420.136 411.484C420.592 419.39 422.424 427.713 425.743 434.971C429.059 442.223 433.897 448.488 440.411 452.147L441.533 450.148ZM434.235 382.293C437.773 381.887 440.235 382.538 441.984 383.778C443.747 385.027 444.942 386.986 445.721 389.493C447.299 394.569 447.039 401.406 446.79 407.625L449.08 407.717C449.324 401.626 449.63 394.346 447.91 388.813C447.04 386.015 445.62 383.545 443.31 381.908C440.986 380.26 437.916 379.564 433.973 380.016L434.235 382.293ZM446.79 407.625C446.707 409.688 446.627 411.679 446.627 413.471H448.919C448.919 411.734 448.997 409.792 449.08 407.717L446.79 407.625ZM446.627 413.471C446.627 415.126 447.056 416.493 447.869 417.578C448.674 418.652 449.787 419.358 451.001 419.821C453.383 420.729 456.396 420.788 459.021 420.713L458.955 418.422C456.323 418.497 453.729 418.407 451.817 417.679C450.885 417.324 450.18 416.839 449.703 416.203C449.234 415.578 448.919 414.714 448.919 413.471H446.627ZM457.842 400.065V419.567H460.134V400.065H457.842Z" fill="black"/>
<line x1="467.955" y1="452.467" x2="467.955" y2="499.641" stroke="black" stroke-width="2.29213"/>
<line x1="483.233" y1="452.467" x2="483.233" y2="499.641" stroke="black" stroke-width="2.29213"/>
<path d="M458.821 499.393H490.858" stroke="black" stroke-width="2.29213"/>
<line x1="628.836" y1="452.467" x2="628.836" y2="499.641" stroke="black" stroke-width="2.29213"/>
<line x1="644.115" y1="452.467" x2="644.115" y2="499.641" stroke="black" stroke-width="2.29213"/>
<path d="M619.703 499.393H651.74" stroke="black" stroke-width="2.29213"/>
<line x1="458.988" y1="419.547" x2="648.662" y2="419.547" stroke="black" stroke-width="2.29213"/>
<path d="M436.354 381.154C431.196 394.048 426.497 426.252 448.96 451.924" stroke="black" stroke-width="2.29213"/>
<path d="M671.584 381.154C676.741 394.048 681.44 426.252 658.977 451.924" stroke="black" stroke-width="2.29213"/>
<path d="M53.709 112.314L139.976 170.353V524.611L53.709 586.785V112.314Z" fill="#98BBCE" stroke="black" stroke-width="2.29213"/>
<path d="M60.1689 125.781L133.231 174.776V529.196L60.1689 582.202V125.781Z" fill="#E0E0E0" stroke="black" stroke-width="2.29213"/>
<rect x="211.753" y="439.986" width="157.011" height="61.8875" fill="#F8C66D" stroke="black" stroke-width="2.29213"/>
<rect x="211.753" y="439.986" width="157.011" height="19.4831" stroke="black" stroke-width="2.29213"/>
<line x1="326.359" y1="450.301" x2="336.674" y2="450.301" stroke="black" stroke-width="2.29213"/>
<line x1="243.843" y1="449.727" x2="254.157" y2="449.727" stroke="black" stroke-width="2.29213"/>
<path d="M537.098 323C533.875 323 530.14 326.906 528.675 328.86C540.687 330.324 547.108 375.126 548.817 397.343H626.09C626.09 391.118 621.329 359.622 618.4 341.677C616.056 327.321 604.483 323.244 598.99 323H537.098Z" fill="#BF4A39"/>
<path d="M528.675 328.86L527.758 328.172L528.536 329.997L528.675 328.86ZM598.99 323L599.041 321.855L598.99 321.854V323ZM618.4 341.677L619.531 341.493L619.531 341.493L618.4 341.677ZM626.09 397.343V398.489L627.236 397.343H626.09ZM548.817 397.343L547.674 397.431L548.817 398.489V397.343ZM529.592 329.547C530.277 328.633 531.512 327.242 532.945 326.091C534.42 324.906 535.897 324.146 537.098 324.146V321.854C535.076 321.854 533.074 323.047 531.509 324.304C529.902 325.595 528.537 327.133 527.758 328.172L529.592 329.547ZM537.098 324.146H598.99V321.854H537.098V324.146ZM598.939 324.145C604.084 324.374 615.04 328.212 617.269 341.862L619.531 341.493C617.072 326.431 604.882 322.115 599.041 321.855L598.939 324.145ZM617.269 341.862C618.732 350.829 620.654 363.181 622.209 374.067C623.772 385.007 624.944 394.334 624.944 397.343H627.236C627.236 394.127 626.028 384.594 624.478 373.743C622.92 362.839 620.997 350.471 619.531 341.493L617.269 341.862ZM626.09 396.197H548.817V398.489H626.09V396.197ZM549.96 397.256C549.103 386.112 547.064 369.295 543.725 355.058C542.058 347.947 540.053 341.418 537.679 336.552C536.493 334.119 535.191 332.05 533.753 330.525C532.315 329.001 530.671 327.949 528.814 327.722L528.536 329.997C529.681 330.137 530.866 330.805 532.085 332.098C533.304 333.391 534.488 335.235 535.619 337.556C537.882 342.196 539.841 348.531 541.494 355.581C544.796 369.665 546.823 386.357 547.674 397.431L549.96 397.256Z" fill="black"/>
<line x1="551.795" y1="398.443" x2="551.794" y2="405.035" stroke="black" stroke-width="2.29213"/>
<line x1="557.654" y1="398.443" x2="557.654" y2="405.035" stroke="black" stroke-width="2.29213"/>
<line x1="563.513" y1="398.443" x2="563.513" y2="405.035" stroke="black" stroke-width="2.29213"/>
<line x1="569.374" y1="398.443" x2="569.374" y2="405.035" stroke="black" stroke-width="2.29213"/>
<line x1="575.233" y1="398.443" x2="575.233" y2="405.035" stroke="black" stroke-width="2.29213"/>
<line x1="581.092" y1="398.443" x2="581.092" y2="405.035" stroke="black" stroke-width="2.29213"/>
<line x1="586.952" y1="398.443" x2="586.952" y2="405.035" stroke="black" stroke-width="2.29213"/>
<line x1="592.811" y1="398.443" x2="592.811" y2="405.035" stroke="black" stroke-width="2.29213"/>
<line x1="598.671" y1="398.443" x2="598.671" y2="405.035" stroke="black" stroke-width="2.29213"/>
<line x1="604.531" y1="398.443" x2="604.531" y2="405.035" stroke="black" stroke-width="2.29213"/>
<line x1="610.39" y1="398.443" x2="610.39" y2="405.035" stroke="black" stroke-width="2.29213"/>
<line x1="616.25" y1="398.443" x2="616.25" y2="405.035" stroke="black" stroke-width="2.29213"/>
<line x1="622.11" y1="398.443" x2="622.11" y2="405.035" stroke="black" stroke-width="2.29213"/>
<path d="M306.541 526.045H769.466L850.38 586.745H214.887L306.541 526.045Z" fill="#BF4A39" stroke="black" stroke-width="2.47756" stroke-linejoin="bevel"/>
<path d="M710.214 389.949L720.815 379.348V457.28L710.214 446.679V389.949Z" fill="#E0E0E0" stroke="black" stroke-width="2.29213" stroke-linejoin="bevel"/>
<path d="M731.702 389.949L721.101 379.348V457.28L731.702 446.679V389.949Z" fill="#E0E0E0" stroke="black" stroke-width="2.29213" stroke-linejoin="bevel"/>
<path d="M732.275 389.949L742.876 379.348V457.28L732.275 446.679V389.949Z" fill="#E0E0E0" stroke="black" stroke-width="2.29213" stroke-linejoin="bevel"/>
<path d="M753.765 389.949L743.164 379.348V457.28L753.765 446.679V389.949Z" fill="#E0E0E0" stroke="black" stroke-width="2.29213" stroke-linejoin="bevel"/>
<path d="M754.337 389.949L764.938 379.348V457.28L754.337 446.679V389.949Z" fill="#E0E0E0" stroke="black" stroke-width="2.29213" stroke-linejoin="bevel"/>
<path d="M775.826 389.949L765.225 379.348V457.28L775.826 446.679V389.949Z" fill="#E0E0E0" stroke="black" stroke-width="2.29213" stroke-linejoin="bevel"/>
<path d="M776.399 389.949L787.001 379.348V457.28L776.399 446.679V389.949Z" fill="#E0E0E0" stroke="black" stroke-width="2.29213" stroke-linejoin="bevel"/>
<path d="M797.888 389.949L787.287 379.348V457.28L797.888 446.679V389.949Z" fill="#E0E0E0" stroke="black" stroke-width="2.29213" stroke-linejoin="bevel"/>
<path d="M798.461 389.949L809.062 379.348V457.28L798.461 446.679V389.949Z" fill="#E0E0E0" stroke="black" stroke-width="2.29213" stroke-linejoin="bevel"/>
<path d="M819.949 389.949L809.348 379.348V457.28L819.949 446.679V389.949Z" fill="#E0E0E0" stroke="black" stroke-width="2.29213" stroke-linejoin="bevel"/>
<path d="M820.522 389.949L831.124 379.348V457.28L820.522 446.679V389.949Z" fill="#E0E0E0" stroke="black" stroke-width="2.29213" stroke-linejoin="bevel"/>
<path d="M842.012 389.949L831.411 379.348V457.28L842.012 446.679V389.949Z" fill="#E0E0E0" stroke="black" stroke-width="2.29213" stroke-linejoin="bevel"/>
<path d="M863.719 390.616V97.416H855.41V388.897C855.41 389.846 854.64 390.616 853.691 390.616H841.944V399.977H856.269C860.384 399.977 863.719 396.642 863.719 392.528V390.616Z" fill="#E0E0E0" stroke="black" stroke-width="2.29213"/>
<path d="M859.415 476.462C859.565 475.847 859.188 475.227 858.573 475.077C857.958 474.927 857.338 475.304 857.188 475.919L859.415 476.462ZM837.774 560.426L836.661 560.155L837.774 561.572V560.426ZM898.364 468.739C898.679 468.19 898.489 467.489 897.94 467.174C897.392 466.859 896.691 467.048 896.376 467.597L898.364 468.739ZM844.396 560.426V561.572L845.39 560.997L844.396 560.426ZM857.188 475.919L836.661 560.155L838.888 560.698L859.415 476.462L857.188 475.919ZM837.774 561.572H844.396V559.28H837.774V561.572ZM845.39 560.997L898.364 468.739L896.376 467.597L843.402 559.856L845.39 560.997Z" fill="black"/>
<path d="M998.894 335.626C1016.5 335.093 1009.79 366.471 1004.23 382.227C993.025 417.378 973.817 443.474 950.898 460.364C879.533 512.957 835.903 468.685 827.486 452.794C819.507 437.729 814.147 443.474 863.502 443.474C912.857 443.474 880.843 358.926 892.181 338.289C903.519 317.651 930.865 347.609 940.202 358.926C949.539 370.244 976.885 336.292 998.894 335.626Z" fill="#CBCBCB" stroke="black" stroke-width="2.29213"/>
<path d="M848.73 476.529C823.989 460.432 819.977 442.994 823.32 442.994C836.571 451.674 854.392 464.275 881.325 465.589C916.566 467.308 954.673 446.679 980.173 430.348C937.377 486.017 879.138 496.313 848.73 476.529Z" fill="#E0E0E0"/>
<path d="M823.32 442.994V441.847L823.948 442.035L823.32 442.994ZM848.73 476.529L849.355 475.569L849.355 475.569L848.73 476.529ZM980.173 430.348L979.555 429.383L981.081 431.046L980.173 430.348ZM881.325 465.589L881.381 464.444L881.381 464.444L881.325 465.589ZM823.32 444.14C823.382 444.14 823.475 444.111 823.544 444.05C823.593 444.006 823.568 444 823.529 444.122C823.445 444.386 823.399 444.926 823.533 445.794C823.797 447.496 824.691 450.042 826.486 453.152C830.063 459.349 837.116 467.606 849.355 475.569L848.105 477.49C835.602 469.355 828.28 460.845 824.501 454.298C822.618 451.036 821.589 448.216 821.268 446.145C821.11 445.127 821.105 444.179 821.345 443.426C821.468 443.041 821.676 442.644 822.022 442.336C822.387 442.012 822.84 441.847 823.32 441.847V444.14ZM849.355 475.569C879.066 494.899 936.672 485.055 979.264 429.649L981.081 431.046C938.083 486.979 879.209 497.727 848.105 477.49L849.355 475.569ZM980.791 431.313C968.012 439.497 952.045 448.778 934.835 455.799C917.633 462.816 899.121 467.605 881.269 466.734L881.381 464.444C898.77 465.293 916.932 460.626 933.969 453.676C950.998 446.729 966.834 437.53 979.555 429.383L980.791 431.313ZM881.269 466.734C853.985 465.403 835.92 452.617 822.692 443.952L823.948 442.035C837.223 450.73 854.8 463.148 881.381 464.444L881.269 466.734Z" fill="black"/>
<path d="M926.284 557.427L926.219 558.572L926.284 557.427ZM922.903 555.842L923.721 555.039L922.903 555.842ZM995.318 407.727C988.545 432.599 977.787 469.946 967.519 501.149C962.386 516.746 957.368 530.834 953.026 541.067C950.858 546.177 948.841 550.366 947.048 553.309C946.153 554.777 945.287 555.979 944.457 556.837C943.666 557.655 942.727 558.35 941.675 558.409L941.547 556.121C941.694 556.112 942.109 555.967 942.81 555.243C943.471 554.56 944.235 553.519 945.09 552.116C946.797 549.316 948.762 545.249 950.916 540.171C955.22 530.028 960.215 516.013 965.341 500.433C975.592 469.281 986.34 431.976 993.106 407.125L995.318 407.727ZM941.675 558.409C934.346 558.818 929.115 558.736 926.219 558.572L926.349 556.283C929.146 556.442 934.29 556.526 941.547 556.121L941.675 558.409ZM922.085 556.644L828.934 461.743L830.57 460.137L923.721 555.039L922.085 556.644ZM926.219 558.572C924.615 558.481 923.167 557.747 922.085 556.644L923.721 555.039C924.448 555.78 925.375 556.228 926.349 556.283L926.219 558.572Z" fill="black"/>
<path d="M958.111 453.842L986.189 557.561H980.841L942.352 467.308" stroke="black" stroke-width="2.29213" stroke-linejoin="bevel"/>
<path d="M19.4834 402.84L35.6631 403.649V422.795L19.4834 425.761V402.84Z" fill="#F6AE2D" stroke="black" stroke-width="2.29213"/>
<line x1="546.157" y1="47.5605" x2="546.157" y2="181.157" stroke="black" stroke-width="2.29213"/>
<path d="M622.942 221.269H569.724L545.927 180.584C597.499 182.049 622.797 208.318 622.942 221.269Z" fill="#F8C66D" stroke="black" stroke-width="2.29213" stroke-linejoin="bevel"/>
<path d="M466.505 221.269H519.724L543.521 180.584C491.948 182.049 466.65 208.318 466.505 221.269Z" fill="#F8C66D" stroke="black" stroke-width="2.29213" stroke-linejoin="bevel"/>
<path d="M605.292 221.269H567.186L545.124 180.584C592.936 182.049 605.158 208.318 605.292 221.269Z" fill="#F8C66D" stroke="black" stroke-width="2.29213" stroke-linejoin="bevel"/>
<path d="M484.956 221.269H523.062L545.124 180.584C497.312 182.049 485.09 208.318 484.956 221.269Z" fill="#F8C66D" stroke="black" stroke-width="2.29213" stroke-linejoin="bevel"/>
<path d="M578.017 221.269H515.441C515.441 201.467 526.664 184.075 544.688 180.932C566.454 183.42 575.183 209.22 578.017 221.269Z" fill="#F8C66D" stroke="black" stroke-width="2.29213"/>
<path d="M471.09 222.908H619.505L712.909 581.053H388L471.09 222.908Z" fill="url(#paint0_linear_6563_156351)" fill-opacity="0.5"/>
<g clip-path="url(#clip1_6563_156351)">
<path d="M322.198 406.44C322.322 401.823 323.855 396.493 326.041 390.739C328.232 384.975 331.128 378.662 334.043 372.088C339.901 358.876 345.854 344.556 346.84 330.745L349.127 330.908C348.107 345.175 341.979 359.843 336.138 373.017C333.203 379.636 330.345 385.865 328.184 391.553C326.019 397.252 324.603 402.285 324.489 406.502L322.198 406.44Z" fill="black"/>
<path d="M357.975 313.922L358.584 329.165C352.246 337.464 351.88 327.119 352.489 320.908L357.975 313.922Z" fill="#BF4A39" stroke="black" stroke-width="2.29213"/>
<path d="M342.555 313.463L347.059 327.847C342.877 337.456 339.868 327.681 338.887 321.592L342.555 313.463Z" fill="#BF4A39" stroke="black" stroke-width="2.29213"/>
<path d="M348.849 343.116C363.731 343.993 363.031 325.831 360.821 316.641C356.681 322.484 357.049 327.231 353.734 328.144C351.966 325.223 355.023 313.537 353.366 309.338C345.262 314.815 344.428 330.518 343.507 326.501C342.771 323.287 339.122 316.154 336.421 314.815C335.009 322.667 333.967 342.24 348.849 343.116Z" fill="#BF4A39" stroke="black" stroke-width="2.29213"/>
<mask id="path-74-inside-1_6563_156351" fill="white">
<path d="M341.394 376.383H301.281V430.821C301.281 435.885 305.386 439.989 310.45 439.989H332.225C337.289 439.989 341.394 435.885 341.394 430.821V376.383Z"/>
</mask>
<path d="M341.394 376.383H301.281V430.821C301.281 435.885 305.386 439.989 310.45 439.989H332.225C337.289 439.989 341.394 435.885 341.394 430.821V376.383Z" fill="#98BBCE"/>
<path d="M341.394 376.383V374.091H343.686V376.383H341.394ZM301.281 376.383H298.989V374.091H301.281V376.383ZM341.394 378.675H301.281V374.091H341.394V378.675ZM303.573 376.383V430.821H298.989V376.383H303.573ZM310.45 437.697H332.225V442.282H310.45V437.697ZM339.101 430.821V376.383H343.686V430.821H339.101ZM332.225 437.697C336.023 437.697 339.101 434.619 339.101 430.821H343.686C343.686 437.15 338.555 442.282 332.225 442.282V437.697ZM303.573 430.821C303.573 434.619 306.652 437.697 310.45 437.697V442.282C304.12 442.282 298.989 437.15 298.989 430.821H303.573Z" fill="black" mask="url(#path-74-inside-1_6563_156351)"/>
</g>
</g>
<defs>
<linearGradient id="paint0_linear_6563_156351" x1="550.455" y1="222.908" x2="550.455" y2="581.053" gradientUnits="userSpaceOnUse">
<stop stop-color="#F8C66D"/>
<stop offset="1" stop-color="#F8C66D" stop-opacity="0"/>
</linearGradient>
<clipPath id="clip0_6563_156351">
<rect width="1100" height="618" fill="white"/>
</clipPath>
<clipPath id="clip1_6563_156351">
<rect width="147.842" height="148.988" fill="white" transform="matrix(-1 0 0 1 399.843 291)"/>
</clipPath>
</defs>
</svg>
