<svg width="599" height="1080" viewBox="0 0 599 1080" fill="none" xmlns="http://www.w3.org/2000/svg">
<rect x="0.54" y="-36.46" width="597.92" height="1165.92" fill="#ECECEC"/>
<g clip-path="url(#clip0_6446_533278)">
<path d="M549.916 70.3691L464.446 120.161V286.918L549.916 349.125V70.3691Z" fill="#CBCBCB" stroke="black" stroke-width="1.0455"/>
<path d="M48.0762 47.1074L133.546 120.162V286.919L48.0762 349.126V47.1074Z" fill="#CBCBCB" stroke="black" stroke-width="1.0455"/>
<path d="M363.294 139.502H397.273V219.483H363.294V139.502Z" fill="#BF4A39"/>
<rect x="367.999" y="144.991" width="24.3078" height="68.7415" fill="#98BBCE" stroke="black" stroke-width="1.0455"/>
<path d="M363.294 139.502V138.456H362.248V139.502H363.294ZM397.273 139.502H398.318V138.456H397.273V139.502ZM397.273 219.483V220.528H398.318V219.483H397.273ZM363.294 219.483H362.248V220.528H363.294V219.483ZM363.294 140.547H397.273V138.456H363.294V140.547ZM396.227 139.502V219.483H398.318V139.502H396.227ZM397.273 218.437H363.294V220.528H397.273V218.437ZM364.339 219.483V139.502H362.248V219.483H364.339Z" fill="black"/>
<rect x="133.285" y="120.16" width="331.162" height="166.496" fill="#CBCBCB" stroke="black" stroke-width="1.0455"/>
<path d="M133.498 120.424L34.1023 37.8294H607.305L464.934 120.424H133.498Z" fill="#E0E0E0" stroke="black" stroke-width="1.0455"/>
<path d="M133.215 286.655L34.015 358.01H563.974L464.644 286.655H133.215Z" fill="#E0E0E0" stroke="black" stroke-width="1.0455"/>
<path d="M503.651 139.379L524.431 130.613V251.205L503.651 240.641V139.379Z" fill="#AADAF4" stroke="black" stroke-width="1.0455"/>
<path d="M490.321 138.455L503.651 139.755V241.112L490.321 241.437V138.455Z" fill="#E0E0E0" stroke="black" stroke-width="1.0455" stroke-linejoin="bevel"/>
<path d="M490.191 138.456L503.26 139.501L524.431 130.484L524.431 119.41L490.191 138.456Z" fill="#E0E0E0" stroke="black" stroke-width="1.0455" stroke-linejoin="bevel"/>
<path d="M490.583 241.436L503.652 240.913L524.431 251.107L524.431 261.17L490.583 241.436Z" fill="#E0E0E0" stroke="black" stroke-width="1.0455" stroke-linejoin="bevel"/>
<path d="M72.5742 113.889L111.923 140.361V301.948L72.5742 330.307V113.889Z" fill="#98BBCE" stroke="black" stroke-width="1.0455"/>
<path d="M75.5205 120.031L108.846 142.379V304.039L75.5205 328.216V120.031Z" fill="#E0E0E0" stroke="black" stroke-width="1.0455"/>
<rect x="48" y="47" width="502" height="302" fill="black" fill-opacity="0.2"/>
</g>
<rect x="48.5518" y="47.5386" width="500.909" height="301.084" stroke="black" stroke-width="1.07722"/>
<g clip-path="url(#clip1_6446_533278)">
<path d="M549.916 412.531L464.446 462.323V629.08L549.916 691.287V412.531Z" fill="#CBCBCB" stroke="black" stroke-width="1.0455"/>
<path d="M48.0762 389.27L133.546 462.324V629.081L48.0762 691.288V389.27Z" fill="#CBCBCB" stroke="black" stroke-width="1.0455"/>
<path d="M363.294 481.664H397.273V561.645H363.294V481.664Z" fill="#BF4A39"/>
<rect x="367.999" y="487.154" width="24.3078" height="68.7415" fill="#98BBCE" stroke="black" stroke-width="1.0455"/>
<path d="M363.294 481.664V480.619H362.248V481.664H363.294ZM397.273 481.664H398.318V480.619H397.273V481.664ZM397.273 561.645V562.69H398.318V561.645H397.273ZM363.294 561.645H362.248V562.69H363.294V561.645ZM363.294 482.71H397.273V480.619H363.294V482.71ZM396.227 481.664V561.645H398.318V481.664H396.227ZM397.273 560.599H363.294V562.69H397.273V560.599ZM364.339 561.645V481.664H362.248V561.645H364.339Z" fill="black"/>
<rect x="133.285" y="462.322" width="331.162" height="166.496" fill="#CBCBCB" stroke="black" stroke-width="1.0455"/>
<path d="M133.498 462.586L34.1023 379.991H607.305L464.934 462.586H133.498Z" fill="#E0E0E0" stroke="black" stroke-width="1.0455"/>
<path d="M133.215 628.817L34.015 700.173H563.974L464.644 628.817H133.215Z" fill="#E0E0E0" stroke="black" stroke-width="1.0455"/>
<path d="M503.651 481.541L524.431 472.775V593.367L503.651 582.803V481.541Z" fill="#AADAF4" stroke="black" stroke-width="1.0455"/>
<path d="M490.321 480.617L503.651 481.917V583.274L490.321 583.599V480.617Z" fill="#E0E0E0" stroke="black" stroke-width="1.0455" stroke-linejoin="bevel"/>
<path d="M490.191 480.618L503.26 481.663L524.431 472.646L524.431 461.572L490.191 480.618Z" fill="#E0E0E0" stroke="black" stroke-width="1.0455" stroke-linejoin="bevel"/>
<path d="M490.583 583.598L503.652 583.076L524.431 593.269L524.431 603.332L490.583 583.598Z" fill="#E0E0E0" stroke="black" stroke-width="1.0455" stroke-linejoin="bevel"/>
<path d="M72.5742 456.051L111.923 482.523V644.11L72.5742 672.469V456.051Z" fill="#98BBCE" stroke="black" stroke-width="1.0455"/>
<path d="M75.5205 462.193L108.846 484.541V646.201L75.5205 670.378V462.193Z" fill="#E0E0E0" stroke="black" stroke-width="1.0455"/>
<rect x="48" y="389.162" width="502" height="302" fill="black" fill-opacity="0.2"/>
</g>
<rect x="48.5518" y="389.701" width="500.909" height="301.084" stroke="black" stroke-width="1.07722"/>
<g clip-path="url(#clip2_6446_533278)">
<path d="M549.916 754.691L464.446 804.483V971.24L549.916 1033.45V754.691Z" fill="#CBCBCB" stroke="black" stroke-width="1.0455"/>
<path d="M48.0762 731.43L133.546 804.484V971.241L48.0762 1033.45V731.43Z" fill="#CBCBCB" stroke="black" stroke-width="1.0455"/>
<path d="M363.294 823.824H397.273V903.805H363.294V823.824Z" fill="#BF4A39"/>
<rect x="367.999" y="829.314" width="24.3078" height="68.7415" fill="#98BBCE" stroke="black" stroke-width="1.0455"/>
<path d="M363.294 823.824V822.779H362.248V823.824H363.294ZM397.273 823.824H398.318V822.779H397.273V823.824ZM397.273 903.805V904.85H398.318V903.805H397.273ZM363.294 903.805H362.248V904.85H363.294V903.805ZM363.294 824.87H397.273V822.779H363.294V824.87ZM396.227 823.824V903.805H398.318V823.824H396.227ZM397.273 902.759H363.294V904.85H397.273V902.759ZM364.339 903.805V823.824H362.248V903.805H364.339Z" fill="black"/>
<rect x="133.285" y="804.482" width="331.162" height="166.496" fill="#CBCBCB" stroke="black" stroke-width="1.0455"/>
<path d="M133.498 804.746L34.1023 722.152H607.305L464.934 804.746H133.498Z" fill="#E0E0E0" stroke="black" stroke-width="1.0455"/>
<path d="M133.215 970.977L34.015 1042.33H563.974L464.644 970.977H133.215Z" fill="#E0E0E0" stroke="black" stroke-width="1.0455"/>
<path d="M503.651 823.701L524.431 814.936V935.527L503.651 924.963V823.701Z" fill="#AADAF4" stroke="black" stroke-width="1.0455"/>
<path d="M490.321 822.777L503.651 824.077V925.434L490.321 925.759V822.777Z" fill="#E0E0E0" stroke="black" stroke-width="1.0455" stroke-linejoin="bevel"/>
<path d="M490.191 822.778L503.26 823.824L524.431 814.806L524.431 803.732L490.191 822.778Z" fill="#E0E0E0" stroke="black" stroke-width="1.0455" stroke-linejoin="bevel"/>
<path d="M490.583 925.758L503.652 925.236L524.431 935.429L524.431 945.492L490.583 925.758Z" fill="#E0E0E0" stroke="black" stroke-width="1.0455" stroke-linejoin="bevel"/>
<path d="M72.5742 798.211L111.923 824.684V986.27L72.5742 1014.63V798.211Z" fill="#98BBCE" stroke="black" stroke-width="1.0455"/>
<path d="M75.5205 804.354L108.846 826.701V988.361L75.5205 1012.54V804.354Z" fill="#E0E0E0" stroke="black" stroke-width="1.0455"/>
<rect x="48" y="731.322" width="502" height="302" fill="black" fill-opacity="0.2"/>
</g>
<rect x="48.5518" y="731.861" width="500.909" height="301.084" stroke="black" stroke-width="1.07722"/>
<rect x="0.54" y="-36.46" width="597.92" height="1165.92" stroke="black" stroke-width="1.08"/>
<defs>
<clipPath id="clip0_6446_533278">
<rect x="48.0132" y="47" width="501.987" height="302.162" fill="white"/>
</clipPath>
<clipPath id="clip1_6446_533278">
<rect x="48.0132" y="389.162" width="501.987" height="302.162" fill="white"/>
</clipPath>
<clipPath id="clip2_6446_533278">
<rect x="48.0132" y="731.322" width="501.987" height="302.162" fill="white"/>
</clipPath>
</defs>
</svg>
