<svg width="767" height="1080" viewBox="0 0 767 1080" fill="none" xmlns="http://www.w3.org/2000/svg">
<g clip-path="url(#clip0_6446_533278)">
<rect y="-37" width="767" height="1167" fill="#ECECEC"/>
<g clip-path="url(#clip1_6446_533278)">
<path d="M717.916 70.3691L632.446 120.161V286.918L717.916 349.125V70.3691Z" fill="#CBCBCB" stroke="black" stroke-width="1.0455"/>
<path d="M216.076 47.1074L301.546 120.162V286.919L216.076 349.126V47.1074Z" fill="#CBCBCB" stroke="black" stroke-width="1.0455"/>
<path d="M531.294 139.502H565.273V219.483H531.294V139.502Z" fill="#BF4A39"/>
<rect x="535.999" y="144.991" width="24.3078" height="68.7415" fill="#98BBCE" stroke="black" stroke-width="1.0455"/>
<path d="M531.294 139.502V138.456H530.248V139.502H531.294ZM565.273 139.502H566.318V138.456H565.273V139.502ZM565.273 219.483V220.528H566.318V219.483H565.273ZM531.294 219.483H530.248V220.528H531.294V219.483ZM531.294 140.547H565.273V138.456H531.294V140.547ZM564.227 139.502V219.483H566.318V139.502H564.227ZM565.273 218.437H531.294V220.528H565.273V218.437ZM532.339 219.483V139.502H530.248V219.483H532.339Z" fill="black"/>
<rect x="301.285" y="120.16" width="331.162" height="166.496" fill="#CBCBCB" stroke="black" stroke-width="1.0455"/>
<path d="M301.498 120.424L202.102 37.8294H775.305L632.934 120.424H301.498Z" fill="#E0E0E0" stroke="black" stroke-width="1.0455"/>
<path d="M301.215 286.655L202.015 358.01H731.974L632.644 286.655H301.215Z" fill="#E0E0E0" stroke="black" stroke-width="1.0455"/>
<path d="M671.651 139.379L692.431 130.613V251.205L671.651 240.641V139.379Z" fill="#AADAF4" stroke="black" stroke-width="1.0455"/>
<path d="M658.321 138.455L671.651 139.755V241.112L658.321 241.437V138.455Z" fill="#F8C66D" stroke="black" stroke-width="1.0455" stroke-linejoin="bevel"/>
<path d="M658.191 138.456L671.26 139.501L692.431 130.484L692.431 119.41L658.191 138.456Z" fill="#F8C66D" stroke="black" stroke-width="1.0455" stroke-linejoin="bevel"/>
<path d="M658.583 241.436L671.652 240.913L692.431 251.107L692.431 261.17L658.583 241.436Z" fill="#F8C66D" stroke="black" stroke-width="1.0455" stroke-linejoin="bevel"/>
<path d="M240.574 113.889L279.923 140.361V301.948L240.574 330.307V113.889Z" fill="#98BBCE" stroke="black" stroke-width="1.0455"/>
<path d="M243.521 120.031L276.846 142.379V304.039L243.521 328.216V120.031Z" fill="#E0E0E0" stroke="black" stroke-width="1.0455"/>
<rect x="216" y="47" width="502" height="302" fill="black" fill-opacity="0.2"/>
</g>
<rect x="216.552" y="47.5386" width="500.923" height="300.923" stroke="black" stroke-width="1.07722"/>
<g clip-path="url(#clip2_6446_533278)">
<path d="M717.929 412.369L632.459 462.161V628.918L717.929 691.125V412.369Z" fill="#CBCBCB" stroke="black" stroke-width="1.0455"/>
<path d="M216.089 389.107L301.559 462.162V628.919L216.089 691.126V389.107Z" fill="#CBCBCB" stroke="black" stroke-width="1.0455"/>
<path d="M531.307 481.502H565.286V561.483H531.307V481.502Z" fill="#BF4A39"/>
<rect x="536.012" y="486.991" width="24.3078" height="68.7415" fill="#98BBCE" stroke="black" stroke-width="1.0455"/>
<path d="M531.307 481.502V480.456H530.262V481.502H531.307ZM565.286 481.502H566.331V480.456H565.286V481.502ZM565.286 561.483V562.528H566.331V561.483H565.286ZM531.307 561.483H530.262V562.528H531.307V561.483ZM531.307 482.547H565.286V480.456H531.307V482.547ZM564.24 481.502V561.483H566.331V481.502H564.24ZM565.286 560.437H531.307V562.528H565.286V560.437ZM532.353 561.483V481.502H530.262V561.483H532.353Z" fill="black"/>
<rect x="301.298" y="462.16" width="331.162" height="166.496" fill="#CBCBCB" stroke="black" stroke-width="1.0455"/>
<path d="M301.511 462.424L202.115 379.829H775.318L632.948 462.424H301.511Z" fill="#E0E0E0" stroke="black" stroke-width="1.0455"/>
<path d="M301.229 628.655L202.028 700.01H731.987L632.658 628.655H301.229Z" fill="#E0E0E0" stroke="black" stroke-width="1.0455"/>
<path d="M671.665 481.379L692.444 472.613V593.205L671.665 582.641V481.379Z" fill="#AADAF4" stroke="black" stroke-width="1.0455"/>
<path d="M658.334 480.455L671.665 481.755V583.112L658.334 583.437V480.455Z" fill="#F8C66D" stroke="black" stroke-width="1.0455" stroke-linejoin="bevel"/>
<path d="M658.204 480.456L671.273 481.501L692.444 472.484L692.444 461.41L658.204 480.456Z" fill="#F8C66D" stroke="black" stroke-width="1.0455" stroke-linejoin="bevel"/>
<path d="M658.596 583.436L671.665 582.913L692.444 593.107L692.444 603.17L658.596 583.436Z" fill="#F8C66D" stroke="black" stroke-width="1.0455" stroke-linejoin="bevel"/>
<path d="M240.587 455.889L279.936 482.361V643.948L240.587 672.307V455.889Z" fill="#98BBCE" stroke="black" stroke-width="1.0455"/>
<path d="M243.534 462.031L276.859 484.379V646.039L243.534 670.216V462.031Z" fill="#E0E0E0" stroke="black" stroke-width="1.0455"/>
<rect x="216.013" y="389" width="502" height="302" fill="black" fill-opacity="0.2"/>
</g>
<rect x="216.565" y="389.539" width="500.909" height="301.084" stroke="black" stroke-width="1.07722"/>
<g clip-path="url(#clip3_6446_533278)">
<path d="M717.916 754.531L632.446 804.323V971.08L717.916 1033.29V754.531Z" fill="#CBCBCB" stroke="black" stroke-width="1.0455"/>
<path d="M216.076 731.27L301.546 804.324V971.081L216.076 1033.29V731.27Z" fill="#CBCBCB" stroke="black" stroke-width="1.0455"/>
<path d="M531.294 823.664H565.273V903.645H531.294V823.664Z" fill="#BF4A39"/>
<rect x="535.999" y="829.154" width="24.3078" height="68.7415" fill="#98BBCE" stroke="black" stroke-width="1.0455"/>
<path d="M531.294 823.664V822.619H530.248V823.664H531.294ZM565.273 823.664H566.318V822.619H565.273V823.664ZM565.273 903.645V904.69H566.318V903.645H565.273ZM531.294 903.645H530.248V904.69H531.294V903.645ZM531.294 824.71H565.273V822.619H531.294V824.71ZM564.227 823.664V903.645H566.318V823.664H564.227ZM565.273 902.599H531.294V904.69H565.273V902.599ZM532.339 903.645V823.664H530.248V903.645H532.339Z" fill="black"/>
<rect x="301.285" y="804.322" width="331.162" height="166.496" fill="#CBCBCB" stroke="black" stroke-width="1.0455"/>
<path d="M301.498 804.586L202.102 721.991H775.305L632.934 804.586H301.498Z" fill="#E0E0E0" stroke="black" stroke-width="1.0455"/>
<path d="M301.215 970.817L202.015 1042.17H731.974L632.644 970.817H301.215Z" fill="#E0E0E0" stroke="black" stroke-width="1.0455"/>
<path d="M671.651 823.541L692.431 814.775V935.367L671.651 924.803V823.541Z" fill="#AADAF4" stroke="black" stroke-width="1.0455"/>
<path d="M658.321 822.617L671.651 823.917V925.274L658.321 925.599V822.617Z" fill="#F8C66D" stroke="black" stroke-width="1.0455" stroke-linejoin="bevel"/>
<path d="M658.191 822.618L671.26 823.663L692.431 814.646L692.431 803.572L658.191 822.618Z" fill="#F8C66D" stroke="black" stroke-width="1.0455" stroke-linejoin="bevel"/>
<path d="M658.583 925.598L671.652 925.076L692.431 935.269L692.431 945.332L658.583 925.598Z" fill="#F8C66D" stroke="black" stroke-width="1.0455" stroke-linejoin="bevel"/>
<path d="M240.574 798.051L279.923 824.523V986.11L240.574 1014.47V798.051Z" fill="#98BBCE" stroke="black" stroke-width="1.0455"/>
<path d="M243.521 804.193L276.846 826.541V988.201L243.521 1012.38V804.193Z" fill="#E0E0E0" stroke="black" stroke-width="1.0455"/>
<rect x="216" y="731.162" width="502" height="302" fill="black" fill-opacity="0.2"/>
</g>
<rect x="216.552" y="731.701" width="500.923" height="300.923" stroke="black" stroke-width="1.07722"/>
<g clip-path="url(#clip4_6446_533278)">
<path d="M22.5 627.475H22.2392L22.0816 627.683L-24.9184 689.683L-25.5568 690.525H-24.5H216H216.525V690V628V627.475H216H22.5Z" fill="#CBCBCB" stroke="black" stroke-width="1.05"/>
<rect x="63.475" y="453.475" width="100.05" height="174.05" fill="#CBCBCB" stroke="black" stroke-width="1.05"/>
<line x1="113.5" y1="454" x2="113.5" y2="627" stroke="black"/>
<circle cx="181.5" cy="541.5" r="6" fill="#CBCBCB" stroke="black"/>
<circle cx="181.5" cy="560.5" r="6" fill="#CBCBCB" stroke="black"/>
<path d="M179 543L181.5 540L184 543" stroke="black"/>
<path d="M184 559L181.5 562L179 559" stroke="black"/>
<line x1="22.5" y1="628" x2="22.5" y2="388" stroke="black"/>
<line x1="216" y1="389.5" x2="-24" y2="389.5" stroke="black"/>
</g>
<g clip-path="url(#clip5_6446_533278)">
<path d="M22.5 285.475H22.2392L22.0816 285.683L-24.9184 347.683L-25.5568 348.525H-24.5H216H216.525V348V286V285.475H216H22.5Z" fill="#CBCBCB" stroke="black" stroke-width="1.05"/>
<rect x="63.475" y="111.475" width="100.05" height="174.05" fill="#CBCBCB" stroke="black" stroke-width="1.05"/>
<line x1="113.5" y1="112" x2="113.5" y2="285" stroke="black"/>
<circle cx="181.5" cy="199.5" r="6" fill="#CBCBCB" stroke="black"/>
<circle cx="181.5" cy="218.5" r="6" fill="#CBCBCB" stroke="black"/>
<path d="M179 201L181.5 198L184 201" stroke="black"/>
<path d="M184 217L181.5 220L179 217" stroke="black"/>
<line x1="22.5" y1="286" x2="22.5" y2="46" stroke="black"/>
<line x1="216" y1="47.5" x2="-24" y2="47.5" stroke="black"/>
</g>
<g clip-path="url(#clip6_6446_533278)">
<path d="M22.5 969.475H22.2392L22.0816 969.683L-24.9184 1031.68L-25.5568 1032.53H-24.5H216H216.525V1032V970V969.475H216H22.5Z" fill="#CBCBCB" stroke="black" stroke-width="1.05"/>
<rect x="63.475" y="795.475" width="100.05" height="174.05" fill="#CBCBCB" stroke="black" stroke-width="1.05"/>
<line x1="113.5" y1="796" x2="113.5" y2="969" stroke="black"/>
<circle cx="181.5" cy="883.5" r="6" fill="#CBCBCB" stroke="black"/>
<circle cx="181.5" cy="902.5" r="6" fill="#CBCBCB" stroke="black"/>
<path d="M179 885L181.5 882L184 885" stroke="black"/>
<path d="M184 901L181.5 904L179 901" stroke="black"/>
<line x1="22.5" y1="970" x2="22.5" y2="730" stroke="black"/>
<line x1="216" y1="731.5" x2="-24" y2="731.5" stroke="black"/>
</g>
</g>
<rect x="0.54" y="-36.46" width="765.92" height="1165.92" stroke="black" stroke-width="1.08"/>
<defs>
<clipPath id="clip0_6446_533278">
<rect y="-37" width="767" height="1167" fill="white"/>
</clipPath>
<clipPath id="clip1_6446_533278">
<rect x="216.013" y="47" width="502" height="302" fill="white"/>
</clipPath>
<clipPath id="clip2_6446_533278">
<rect x="216.026" y="389" width="501.987" height="302.162" fill="white"/>
</clipPath>
<clipPath id="clip3_6446_533278">
<rect x="216.013" y="731.162" width="502" height="302" fill="white"/>
</clipPath>
<clipPath id="clip4_6446_533278">
<rect width="243" height="301" fill="white" transform="translate(-27 389)"/>
</clipPath>
<clipPath id="clip5_6446_533278">
<rect width="243" height="301" fill="white" transform="translate(-27 47)"/>
</clipPath>
<clipPath id="clip6_6446_533278">
<rect width="243" height="301" fill="white" transform="translate(-27 731)"/>
</clipPath>
</defs>
</svg>
