<svg width="1920" height="1080" fill="none" xmlns="http://www.w3.org/2000/svg">
<rect width="1920" height="1080" fill="#AADAF4"/>
<circle cx="546.5" cy="181.5" r="53.5" fill="white"/>
<circle cx="660" cy="182" r="34" fill="white"/>
<circle cx="481" cy="182" r="34" fill="white"/>
<circle cx="615" cy="207" r="45" fill="white"/>
<circle cx="1547.24" cy="368.606" r="54.1316" fill="white"/>
<circle cx="1605.71" cy="396.395" r="54.1316" fill="white"/>
<circle cx="1537.39" cy="423.027" r="38.5" fill="white"/>
<circle cx="1482.97" cy="399.87" r="30.9737" fill="white"/>
<circle cx="1663.03" cy="373.237" r="30.9737" fill="white"/>
<circle r="54.1316" transform="matrix(-1 0 0 1 326.763 706.132)" fill="white"/>
<circle r="54.1316" transform="matrix(-1 0 0 1 268.289 733.921)" fill="white"/>
<circle r="38.5" transform="matrix(-1 0 0 1 336.605 760.553)" fill="white"/>
<circle r="30.9737" transform="matrix(-1 0 0 1 391.026 737.396)" fill="white"/>
<circle r="30.9737" transform="matrix(-1 0 0 1 210.974 710.763)" fill="white"/>
</svg>
